<?xml version="1.0" encoding="UTF-8"?>
<!--Generator: Apple Native CoreSVG 175.5-->
<!DOCTYPE svg
PUBLIC "-//W3C//DTD SVG 1.1//EN"
       "http://www.w3.org/Graphics/SVG/1.1/DTD/svg11.dtd">
<svg version="1.1" xmlns="http://www.w3.org/2000/svg" xmlns:xlink="http://www.w3.org/1999/xlink" width="3300" height="2200">
 <!--glyph: "uni10046C.medium", point size: 100.0, font version: "18.0d9e1", template writer version: "84"-->
 <g id="Notes">
  <rect height="2200" id="artboard" style="fill:white;opacity:1" width="3300" x="0" y="0"/>
  <line style="fill:none;stroke:black;opacity:1;stroke-width:0.5;" x1="263" x2="3036" y1="292" y2="292"/>
  <text style="stroke:none;fill:black;font-family:sans-serif;font-size:13;font-weight:bold;" transform="matrix(1 0 0 1 263 322)">Weight/Scale Variations</text>
  <text style="stroke:none;fill:black;font-family:sans-serif;font-size:13;text-anchor:middle;" transform="matrix(1 0 0 1 559.711 322)">Ultralight</text>
  <text style="stroke:none;fill:black;font-family:sans-serif;font-size:13;text-anchor:middle;" transform="matrix(1 0 0 1 856.422 322)">Thin</text>
  <text style="stroke:none;fill:black;font-family:sans-serif;font-size:13;text-anchor:middle;" transform="matrix(1 0 0 1 1153.13 322)">Light</text>
  <text style="stroke:none;fill:black;font-family:sans-serif;font-size:13;text-anchor:middle;" transform="matrix(1 0 0 1 1449.84 322)">Regular</text>
  <text style="stroke:none;fill:black;font-family:sans-serif;font-size:13;text-anchor:middle;" transform="matrix(1 0 0 1 1746.56 322)">Medium</text>
  <text style="stroke:none;fill:black;font-family:sans-serif;font-size:13;text-anchor:middle;" transform="matrix(1 0 0 1 2043.27 322)">Semibold</text>
  <text style="stroke:none;fill:black;font-family:sans-serif;font-size:13;text-anchor:middle;" transform="matrix(1 0 0 1 2339.98 322)">Bold</text>
  <text style="stroke:none;fill:black;font-family:sans-serif;font-size:13;text-anchor:middle;" transform="matrix(1 0 0 1 2636.69 322)">Heavy</text>
  <text style="stroke:none;fill:black;font-family:sans-serif;font-size:13;text-anchor:middle;" transform="matrix(1 0 0 1 2933.4 322)">Black</text>
  <line style="fill:none;stroke:black;opacity:1;stroke-width:0.5;" x1="263" x2="3036" y1="1903" y2="1903"/>
  <g transform="matrix(1 0 0 1 263 1933)">
   <path d="M9.24805 0.830078Q10.8691 0.830078 12.2949 0.214844Q13.7207-0.400391 14.8096-1.49414Q15.8984-2.58789 16.5186-4.01367Q17.1387-5.43945 17.1387-7.05078Q17.1387-8.66211 16.5186-10.0879Q15.8984-11.5137 14.8047-12.6074Q13.7109-13.7012 12.2852-14.3164Q10.8594-14.9316 9.23828-14.9316Q7.62695-14.9316 6.20117-14.3164Q4.77539-13.7012 3.69141-12.6074Q2.60742-11.5137 1.9873-10.0879Q1.36719-8.66211 1.36719-7.05078Q1.36719-5.43945 1.9873-4.01367Q2.60742-2.58789 3.69629-1.49414Q4.78516-0.400391 6.21094 0.214844Q7.63672 0.830078 9.24805 0.830078ZM9.24805-0.654297Q7.91992-0.654297 6.7627-1.14746Q5.60547-1.64062 4.73145-2.51953Q3.85742-3.39844 3.36426-4.56055Q2.87109-5.72266 2.87109-7.05078Q2.87109-8.37891 3.35938-9.54102Q3.84766-10.7031 4.72168-11.582Q5.5957-12.4609 6.75293-12.9541Q7.91016-13.4473 9.23828-13.4473Q10.5762-13.4473 11.7383-12.9541Q12.9004-12.4609 13.7793-11.582Q14.6582-10.7031 15.1514-9.54102Q15.6445-8.37891 15.6445-7.05078Q15.6445-5.72266 15.1514-4.56055Q14.6582-3.39844 13.7793-2.51953Q12.9004-1.64062 11.7432-1.14746Q10.5859-0.654297 9.24805-0.654297ZM5.6543-7.05078Q5.6543-6.72852 5.85938-6.52832Q6.06445-6.32812 6.40625-6.32812L8.51562-6.32812L8.51562-4.20898Q8.51562-3.88672 8.71094-3.67676Q8.90625-3.4668 9.23828-3.4668Q9.56055-3.4668 9.77051-3.67676Q9.98047-3.88672 9.98047-4.20898L9.98047-6.32812L12.0898-6.32812Q12.4219-6.32812 12.627-6.52832Q12.832-6.72852 12.832-7.05078Q12.832-7.38281 12.627-7.58789Q12.4219-7.79297 12.0898-7.79297L9.98047-7.79297L9.98047-9.90234Q9.98047-10.2344 9.77051-10.4443Q9.56055-10.6543 9.23828-10.6543Q8.90625-10.6543 8.71094-10.4443Q8.51562-10.2344 8.51562-9.90234L8.51562-7.79297L6.40625-7.79297Q6.06445-7.79297 5.85938-7.58789Q5.6543-7.38281 5.6543-7.05078Z"/>
  </g>
  <g transform="matrix(1 0 0 1 281.867 1933)">
   <path d="M11.709 2.91016Q13.75 2.91016 15.5518 2.12891Q17.3535 1.34766 18.7305-0.0292969Q20.1074-1.40625 20.8887-3.20801Q21.6699-5.00977 21.6699-7.05078Q21.6699-9.0918 20.8887-10.8936Q20.1074-12.6953 18.7305-14.0723Q17.3535-15.4492 15.5469-16.2305Q13.7402-17.0117 11.6992-17.0117Q9.6582-17.0117 7.85645-16.2305Q6.05469-15.4492 4.68262-14.0723Q3.31055-12.6953 2.5293-10.8936Q1.74805-9.0918 1.74805-7.05078Q1.74805-5.00977 2.5293-3.20801Q3.31055-1.40625 4.6875-0.0292969Q6.06445 1.34766 7.86621 2.12891Q9.66797 2.91016 11.709 2.91016ZM11.709 1.25Q9.98047 1.25 8.47656 0.605469Q6.97266-0.0390625 5.83496-1.17676Q4.69727-2.31445 4.05762-3.81836Q3.41797-5.32227 3.41797-7.05078Q3.41797-8.7793 4.05762-10.2832Q4.69727-11.7871 5.83008-12.9297Q6.96289-14.0723 8.4668-14.7119Q9.9707-15.3516 11.6992-15.3516Q13.4277-15.3516 14.9365-14.7119Q16.4453-14.0723 17.583-12.9297Q18.7207-11.7871 19.3652-10.2832Q20.0098-8.7793 20.0098-7.05078Q20.0098-5.32227 19.3701-3.81836Q18.7305-2.31445 17.5879-1.17676Q16.4453-0.0390625 14.9414 0.605469Q13.4375 1.25 11.709 1.25ZM7.17773-7.05078Q7.17773-6.69922 7.41211-6.47461Q7.64648-6.25 8.01758-6.25L10.8887-6.25L10.8887-3.36914Q10.8887-2.99805 11.1133-2.76855Q11.3379-2.53906 11.6895-2.53906Q12.0605-2.53906 12.29-2.76855Q12.5195-2.99805 12.5195-3.36914L12.5195-6.25L15.4004-6.25Q15.7715-6.25 16.001-6.47461Q16.2305-6.69922 16.2305-7.05078Q16.2305-7.42188 16.001-7.65137Q15.7715-7.88086 15.4004-7.88086L12.5195-7.88086L12.5195-10.752Q12.5195-11.1328 12.29-11.3623Q12.0605-11.5918 11.6895-11.5918Q11.3379-11.5918 11.1133-11.3574Q10.8887-11.123 10.8887-10.752L10.8887-7.88086L8.01758-7.88086Q7.63672-7.88086 7.40723-7.65137Q7.17773-7.42188 7.17773-7.05078Z"/>
  </g>
  <g transform="matrix(1 0 0 1 305.646 1933)">
   <path d="M14.9707 5.66406Q17.0605 5.66406 18.96 5.01465Q20.8594 4.36523 22.4512 3.19336Q24.043 2.02148 25.2197 0.429688Q26.3965-1.16211 27.0459-3.06641Q27.6953-4.9707 27.6953-7.05078Q27.6953-9.14062 27.0459-11.04Q26.3965-12.9395 25.2197-14.5312Q24.043-16.123 22.4512-17.2998Q20.8594-18.4766 18.9551-19.126Q17.0508-19.7754 14.9609-19.7754Q12.8711-19.7754 10.9717-19.126Q9.07227-18.4766 7.48535-17.2998Q5.89844-16.123 4.72168-14.5312Q3.54492-12.9395 2.90039-11.04Q2.25586-9.14062 2.25586-7.05078Q2.25586-4.9707 2.90527-3.06641Q3.55469-1.16211 4.72656 0.429688Q5.89844 2.02148 7.49023 3.19336Q9.08203 4.36523 10.9814 5.01465Q12.8809 5.66406 14.9707 5.66406ZM14.9707 3.84766Q13.1641 3.84766 11.5283 3.2959Q9.89258 2.74414 8.53516 1.74805Q7.17773 0.751953 6.17676-0.610352Q5.17578-1.97266 4.62891-3.6084Q4.08203-5.24414 4.08203-7.05078Q4.08203-8.86719 4.62891-10.5029Q5.17578-12.1387 6.17188-13.501Q7.16797-14.8633 8.52539-15.8594Q9.88281-16.8555 11.5186-17.4023Q13.1543-17.9492 14.9609-17.9492Q16.7773-17.9492 18.4131-17.4023Q20.0488-16.8555 21.4111-15.8594Q22.7734-14.8633 23.7744-13.501Q24.7754-12.1387 25.3223-10.5029Q25.8691-8.86719 25.8691-7.05078Q25.8691-5.24414 25.3223-3.6084Q24.7754-1.97266 23.7793-0.610352Q22.7832 0.751953 21.4209 1.74805Q20.0586 2.74414 18.4229 3.2959Q16.7871 3.84766 14.9707 3.84766ZM9.19922-7.05078Q9.19922-6.66992 9.45801-6.4209Q9.7168-6.17188 10.1172-6.17188L14.0625-6.17188L14.0625-2.2168Q14.0625-1.81641 14.3115-1.55762Q14.5605-1.29883 14.9512-1.29883Q15.3516-1.29883 15.6104-1.55273Q15.8691-1.80664 15.8691-2.2168L15.8691-6.17188L19.8242-6.17188Q20.2246-6.17188 20.4785-6.4209Q20.7324-6.66992 20.7324-7.05078Q20.7324-7.46094 20.4785-7.71484Q20.2246-7.96875 19.8242-7.96875L15.8691-7.96875L15.8691-11.9141Q15.8691-12.3242 15.6104-12.583Q15.3516-12.8418 14.9512-12.8418Q14.5605-12.8418 14.3115-12.583Q14.0625-12.3242 14.0625-11.9141L14.0625-7.96875L10.1172-7.96875Q9.70703-7.96875 9.45312-7.71484Q9.19922-7.46094 9.19922-7.05078Z"/>
  </g>
  <text style="stroke:none;fill:black;font-family:sans-serif;font-size:13;font-weight:bold;" transform="matrix(1 0 0 1 263 1953)">Design Variations</text>
  <text style="stroke:none;fill:black;font-family:sans-serif;font-size:13;" transform="matrix(1 0 0 1 263 1971)">Symbols are supported in up to nine weights and three scales.</text>
  <text style="stroke:none;fill:black;font-family:sans-serif;font-size:13;" transform="matrix(1 0 0 1 263 1989)">For optimal layout with text and other symbols, vertically align</text>
  <text style="stroke:none;fill:black;font-family:sans-serif;font-size:13;" transform="matrix(1 0 0 1 263 2007)">symbols with the adjacent text.</text>
  <line style="fill:none;stroke:#00AEEF;stroke-width:0.5;opacity:1.0;" x1="776" x2="776" y1="1919" y2="1933"/>
  <g transform="matrix(1 0 0 1 776 1933)">
   <path d="M3.31055 0.15625Q3.70117 0.15625 3.91602-0.00976562Q4.13086-0.175781 4.26758-0.585938L5.52734-4.0332L11.2891-4.0332L12.5488-0.585938Q12.6855-0.175781 12.9004-0.00976562Q13.1152 0.15625 13.4961 0.15625Q13.8867 0.15625 14.1162-0.0585938Q14.3457-0.273438 14.3457-0.644531Q14.3457-0.869141 14.2383-1.17188L9.6582-13.3691Q9.48242-13.8184 9.17969-14.043Q8.87695-14.2676 8.4082-14.2676Q7.5-14.2676 7.17773-13.3789L2.59766-1.16211Q2.49023-0.859375 2.49023-0.634766Q2.49023-0.263672 2.70996-0.0537109Q2.92969 0.15625 3.31055 0.15625ZM6.00586-5.51758L8.37891-12.0898L8.42773-12.0898L10.8008-5.51758Z"/>
  </g>
  <line style="fill:none;stroke:#00AEEF;stroke-width:0.5;opacity:1.0;" x1="793.197" x2="793.197" y1="1919" y2="1933"/>
  <text style="stroke:none;fill:black;font-family:sans-serif;font-size:13;font-weight:bold;" transform="matrix(1 0 0 1 776 1953)">Margins</text>
  <text style="stroke:none;fill:black;font-family:sans-serif;font-size:13;" transform="matrix(1 0 0 1 776 1971)">Leading and trailing margins on the left and right side of each symbol</text>
  <text style="stroke:none;fill:black;font-family:sans-serif;font-size:13;" transform="matrix(1 0 0 1 776 1989)">can be adjusted by modifying the x-location of the margin guidelines.</text>
  <text style="stroke:none;fill:black;font-family:sans-serif;font-size:13;" transform="matrix(1 0 0 1 776 2007)">Modifications are automatically applied proportionally to all</text>
  <text style="stroke:none;fill:black;font-family:sans-serif;font-size:13;" transform="matrix(1 0 0 1 776 2025)">scales and weights.</text>
  <g transform="matrix(1 0 0 1 1289 1933)">
   <path d="M2.8418 1.86523L4.54102 3.57422Q5.18555 4.22852 5.90332 4.17969Q6.62109 4.13086 7.31445 3.35938L18.0078-8.42773L17.041-9.4043L6.42578 2.27539Q6.16211 2.57812 5.89355 2.61719Q5.625 2.65625 5.27344 2.30469L4.10156 1.14258Q3.75 0.791016 3.79395 0.522461Q3.83789 0.253906 4.14062-0.0195312L15.6152-10.8203L14.6387-11.7871L3.04688-0.898438Q2.30469-0.214844 2.25098 0.498047Q2.19727 1.21094 2.8418 1.86523ZM9.25781-16.3281Q8.94531-16.0254 8.90625-15.6348Q8.86719-15.2441 9.04297-14.9512Q9.21875-14.6777 9.55566-14.541Q9.89258-14.4043 10.3809-14.5215Q11.4746-14.7754 12.5977-14.7314Q13.7207-14.6875 14.7949-13.9844L14.209-12.5293Q13.9551-11.9043 14.0674-11.4404Q14.1797-10.9766 14.5801-10.5664L16.875-8.25195Q17.2363-7.88086 17.5781-7.82227Q17.9199-7.76367 18.3398-7.8418L19.4043-8.03711L20.0684-7.36328L20.0293-6.80664Q20-6.43555 20.1221-6.12305Q20.2441-5.81055 20.6055-5.44922L21.3672-4.70703Q21.7285-4.3457 22.1533-4.33105Q22.5781-4.31641 22.9297-4.66797L25.8398-7.58789Q26.1914-7.93945 26.1816-8.35449Q26.1719-8.76953 25.8105-9.13086L25.0391-9.89258Q24.6875-10.2539 24.3799-10.3857Q24.0723-10.5176 23.7109-10.4883L23.1348-10.4395L22.4902-11.0742L22.7344-12.1973Q22.832-12.6172 22.6953-12.9834Q22.5586-13.3496 22.1191-13.7891L19.9219-15.9766Q18.6719-17.2168 17.2607-17.8369Q15.8496-18.457 14.4189-18.4814Q12.9883-18.5059 11.665-17.959Q10.3418-17.4121 9.25781-16.3281ZM10.752-15.957Q11.6602-16.6211 12.7002-16.9043Q13.7402-17.1875 14.8047-17.085Q15.8691-16.9824 16.8701-16.5137Q17.8711-16.0449 18.7012-15.2051L21.1328-12.793Q21.3086-12.6172 21.3525-12.4512Q21.3965-12.2852 21.3379-12.0312L21.0156-10.5469L22.5195-9.0625L23.5059-9.12109Q23.6914-9.13086 23.7891-9.09668Q23.8867-9.0625 24.0332-8.91602L24.6094-8.33984L22.168-5.89844L21.5918-6.47461Q21.4453-6.62109 21.4062-6.71875Q21.3672-6.81641 21.377-7.01172L21.4453-7.98828L19.9512-9.47266L18.4277-9.21875Q18.1836-9.16992 18.042-9.2041Q17.9004-9.23828 17.7148-9.41406L15.7129-11.416Q15.5176-11.5918 15.4932-11.7529Q15.4688-11.9141 15.5859-12.1875L16.4648-14.2773Q15.293-15.3711 13.8281-15.791Q12.3633-16.2109 10.8398-15.7617Q10.7227-15.7324 10.6885-15.8057Q10.6543-15.8789 10.752-15.957Z"/>
  </g>
  <text style="stroke:none;fill:black;font-family:sans-serif;font-size:13;font-weight:bold;" transform="matrix(1 0 0 1 1289 1953)">Exporting</text>
  <text style="stroke:none;fill:black;font-family:sans-serif;font-size:13;" transform="matrix(1 0 0 1 1289 1971)">Symbols should be outlined when exporting to ensure the</text>
  <text style="stroke:none;fill:black;font-family:sans-serif;font-size:13;" transform="matrix(1 0 0 1 1289 1989)">design is preserved when submitting to Xcode.</text>
  <text id="template-version" style="stroke:none;fill:black;font-family:sans-serif;font-size:13;text-anchor:end;" transform="matrix(1 0 0 1 3036 1933)">Template v.2.0</text>
  <text style="stroke:none;fill:black;font-family:sans-serif;font-size:13;text-anchor:end;" transform="matrix(1 0 0 1 3036 1951)">Requires Xcode 12 or greater</text>
  <text id="descriptive-name" style="stroke:none;fill:black;font-family:sans-serif;font-size:13;text-anchor:end;" transform="matrix(1 0 0 1 3036 1969)">Generated from music.note.list</text>
  <text style="stroke:none;fill:black;font-family:sans-serif;font-size:13;text-anchor:end;" transform="matrix(1 0 0 1 3036 1987)">Typeset at 100 points</text>
  <text style="stroke:none;fill:black;font-family:sans-serif;font-size:13;" transform="matrix(1 0 0 1 263 726)">Small</text>
  <text style="stroke:none;fill:black;font-family:sans-serif;font-size:13;" transform="matrix(1 0 0 1 263 1156)">Medium</text>
  <text style="stroke:none;fill:black;font-family:sans-serif;font-size:13;" transform="matrix(1 0 0 1 263 1586)">Large</text>
 </g>
 <g id="Guides">
  <g id="H-reference" style="fill:#27AAE1;stroke:none;" transform="matrix(1 0 0 1 339 696)">
   <path d="M0.993347 0L3.6377 0L29.3282-67.1326L30.0301-67.1326L30.0301-70.459L28.1227-70.459ZM11.6882-24.4797L46.9818-24.4797L46.2311-26.7288L12.4382-26.7288ZM55.1193 0L57.7637 0L30.6381-70.459L29.4327-70.459L29.4327-67.1326Z"/>
  </g>
  <line id="Baseline-S" style="fill:none;stroke:#27AAE1;opacity:1;stroke-width:0.5;" x1="263" x2="3036" y1="696" y2="696"/>
  <line id="Capline-S" style="fill:none;stroke:#27AAE1;opacity:1;stroke-width:0.5;" x1="263" x2="3036" y1="625.541" y2="625.541"/>
  <g id="H-reference" style="fill:#27AAE1;stroke:none;" transform="matrix(1 0 0 1 339 1126)">
   <path d="M0.993347 0L3.6377 0L29.3282-67.1326L30.0301-67.1326L30.0301-70.459L28.1227-70.459ZM11.6882-24.4797L46.9818-24.4797L46.2311-26.7288L12.4382-26.7288ZM55.1193 0L57.7637 0L30.6381-70.459L29.4327-70.459L29.4327-67.1326Z"/>
  </g>
  <line id="Baseline-M" style="fill:none;stroke:#27AAE1;opacity:1;stroke-width:0.5;" x1="263" x2="3036" y1="1126" y2="1126"/>
  <line id="Capline-M" style="fill:none;stroke:#27AAE1;opacity:1;stroke-width:0.5;" x1="263" x2="3036" y1="1055.54" y2="1055.54"/>
  <g id="H-reference" style="fill:#27AAE1;stroke:none;" transform="matrix(1 0 0 1 339 1556)">
   <path d="M0.993347 0L3.6377 0L29.3282-67.1326L30.0301-67.1326L30.0301-70.459L28.1227-70.459ZM11.6882-24.4797L46.9818-24.4797L46.2311-26.7288L12.4382-26.7288ZM55.1193 0L57.7637 0L30.6381-70.459L29.4327-70.459L29.4327-67.1326Z"/>
  </g>
  <line id="Baseline-L" style="fill:none;stroke:#27AAE1;opacity:1;stroke-width:0.5;" x1="263" x2="3036" y1="1556" y2="1556"/>
  <line id="Capline-L" style="fill:none;stroke:#27AAE1;opacity:1;stroke-width:0.5;" x1="263" x2="3036" y1="1485.54" y2="1485.54"/>
  <line id="left-margin" style="fill:none;stroke:#00AEEF;stroke-width:0.5;opacity:1.0;" x1="1387.63" x2="1387.63" y1="1030.79" y2="1150.12"/>
  <line id="right-margin" style="fill:none;stroke:#00AEEF;stroke-width:0.5;opacity:1.0;" x1="1512.06" x2="1512.06" y1="1030.79" y2="1150.12"/>
 </g>
 <g id="Symbols">
  <g id="Black-L" transform="matrix(1 0 0 1 2849.77 1556)">
   <path d="M151.2-69.0647L151.2-92.4356Q151.2-96.4199 148.338-98.7475Q145.475-101.075 141.629-100.223L108.779-93.0614Q100.16-91.214 100.16-83.7075L100.167-14.7467Q100.333-12.1436 98.194-11.7067L87.852-9.55739Q77.2644-7.35352 71.8297-1.74105Q66.3949 3.87142 66.3949 12.4617Q66.3949 21.2467 72.3582 26.7281Q78.3216 32.2096 87.7486 32.2096Q94.7441 32.2096 100.827 28.8054Q106.91 25.4013 110.639 19.1676Q114.367 12.9339 114.367 4.49548L114.367-53.5603Q114.367-55.0487 114.364-55.1104Q114.36-55.1722 115.764-55.5184L145.477-62.0364Q148.093-62.5918 149.647-64.5204Q151.2-66.4491 151.2-69.0647ZM21.6793-66.289L75.8562-66.289Q78.1978-66.289 79.824-67.9547Q81.4502-69.6205 81.4502-71.8233Q81.4502-74.1649 79.824-75.7911Q78.1978-77.4173 75.8562-77.4173L21.6793-77.4173Q19.3363-77.4173 17.7102-75.7911Q16.084-74.1649 16.084-71.8233Q16.084-69.6205 17.7102-67.9547Q19.3363-66.289 21.6793-66.289ZM21.6793-43.7544L75.8562-43.7544Q78.1978-43.7544 79.824-45.4104Q81.4502-47.0664 81.4502-49.29Q81.4502-51.6303 79.824-53.2468Q78.1978-54.8633 75.8562-54.8633L21.6793-54.8633Q19.3363-54.8633 17.7102-53.2468Q16.084-51.6303 16.084-49.29Q16.084-47.0664 17.7108-45.4104Q19.3376-43.7544 21.6793-43.7544ZM21.6793-21.1978L75.8562-21.1978Q78.1978-21.1978 79.824-22.8434Q81.4502-24.4891 81.4502-26.7334Q81.4502-29.053 79.824-30.6798Q78.1978-32.3067 75.8562-32.3067L21.6793-32.3067Q19.3363-32.3067 17.7102-30.6798Q16.084-29.053 16.084-26.7334Q16.084-24.4891 17.7108-22.8434Q19.3376-21.1978 21.6793-21.1978Z"/>
  </g>
  <g id="Heavy-L" transform="matrix(1 0 0 1 2553.93 1556)">
   <path d="M149.46-68.877L149.46-92.2809Q149.46-95.9007 146.872-98.0023Q144.284-100.104 140.789-99.3299L108.131-92.2212Q100.138-90.5036 100.138-83.5702L100.168-14.4049Q100.406-11.2472 97.7131-10.7224L87.4495-8.58684Q77.1399-6.42478 71.9242-1.03662Q66.7086 4.35154 66.7086 12.5911Q66.7086 20.9882 72.4407 26.2409Q78.1729 31.4935 87.2073 31.4935Q93.6325 31.4935 99.5422 28.3151Q105.452 25.1367 109.2 19.081Q112.948 13.0253 112.948 4.43235L112.948-53.461Q112.948-55.2079 113.113-55.4638Q113.278-55.7197 114.9-56.0892L144.296-62.5546Q146.662-63.0547 148.061-64.7826Q149.46-66.5105 149.46-68.877ZM21.3106-66.0969L76.079-66.0969Q78.2667-66.0969 79.7832-67.6506Q81.2996-69.2042 81.2996-71.2668Q81.2996-73.4545 79.7832-74.971Q78.2667-76.4874 76.079-76.4874L21.3106-76.4874Q19.1168-76.4874 17.6004-74.971Q16.084-73.4545 16.084-71.2668Q16.084-69.2042 17.6004-67.6506Q19.1168-66.0969 21.3106-66.0969ZM21.3106-43.6345L76.079-43.6345Q78.2667-43.6345 79.7832-45.1763Q81.2996-46.718 81.2996-48.8104Q81.2996-50.9921 79.7832-52.4967Q78.2667-54.0012 76.079-54.0012L21.3106-54.0012Q19.1168-54.0012 17.6004-52.4967Q16.084-50.9921 16.084-48.8104Q16.084-46.718 17.6034-45.1763Q19.1229-43.6345 21.3106-43.6345ZM21.3106-21.1363L76.079-21.1363Q78.2667-21.1363 79.7832-22.6632Q81.2996-24.19 81.2996-26.3122Q81.2996-28.4641 79.7832-29.9836Q78.2667-31.503 76.079-31.503L21.3106-31.503Q19.1168-31.503 17.6004-29.9836Q16.084-28.4641 16.084-26.3122Q16.084-24.19 17.6034-22.6632Q19.1229-21.1363 21.3106-21.1363Z"/>
  </g>
  <g id="Bold-L" transform="matrix(1 0 0 1 2258.36 1556)">
   <path d="M147.194-68.5952L147.194-91.9638Q147.194-95.1471 144.933-96.9801Q142.672-98.8131 139.598-98.1326L107.313-91.1231Q100.115-89.5707 100.115-83.3418L100.186-14.0743Q100.482-10.2358 97.1175-9.60111L86.9474-7.48099Q76.992-5.37435 72.0372-0.264445Q67.0825 4.84545 67.0825 12.6639Q67.0825 20.5927 72.5287 25.5635Q77.9748 30.5342 86.5328 30.5342Q92.3084 30.5342 98.0025 27.6199Q103.697 24.7055 107.45 18.869Q111.203 13.0326 111.203 4.29842L111.203-53.2982Q111.203-55.3573 111.57-55.8519Q111.938-56.3466 113.835-56.7479L142.7-63.114Q144.771-63.5525 145.983-65.0385Q147.194-66.5245 147.194-68.5952ZM20.7917-65.8994L76.3715-65.8994Q78.3438-65.8994 79.7044-67.293Q81.065-68.6867 81.065-70.5494Q81.065-72.5217 79.7044-73.8823Q78.3438-75.2428 76.3715-75.2428L20.7917-75.2428Q18.8051-75.2428 17.4445-73.8823Q16.084-72.5217 16.084-70.5494Q16.084-68.6867 17.4445-67.293Q18.8051-65.8994 20.7917-65.8994ZM20.7917-43.5781L76.3715-43.5781Q78.3438-43.5781 79.7044-44.9604Q81.065-46.3427 81.065-48.2423Q81.065-50.2004 79.7044-51.5496Q78.3438-52.8988 76.3715-52.8988L20.7917-52.8988Q18.8051-52.8988 17.4445-51.5496Q16.084-50.2004 16.084-48.2423Q16.084-46.3427 17.4517-44.9604Q18.8193-43.5781 20.7917-43.5781ZM20.7917-21.2056L76.3715-21.2056Q78.3438-21.2056 79.7044-22.5694Q81.065-23.9332 81.065-25.8699Q81.065-27.791 79.7044-29.1586Q78.3438-30.5263 76.3715-30.5263L20.7917-30.5263Q18.8051-30.5263 17.4445-29.1586Q16.084-27.791 16.084-25.8699Q16.084-23.9332 17.4517-22.5694Q18.8193-21.2056 20.7917-21.2056Z"/>
  </g>
  <g id="Semibold-L" transform="matrix(1 0 0 1 1962.43 1556)">
   <path d="M145.632-68.4009L145.632-91.7453Q145.632-94.6276 143.596-96.2754Q141.561-97.9232 138.778-97.3071L106.75-90.3661Q100.099-88.9276 100.099-83.1844L100.199-13.8464Q100.535-9.53852 96.7069-8.82812L86.6013-6.71863Q76.89-4.65018 72.1151 0.267888Q67.3402 5.18596 67.3402 12.7141Q67.3402 20.32 72.5893 25.0964Q77.8383 29.8729 86.0677 29.8729Q91.3955 29.8729 96.941 27.1405Q102.486 24.4082 106.243 18.7229Q109.999 13.0376 109.999 4.20608L109.999-53.1859Q109.999-55.4603 110.507-56.1195Q111.014-56.7788 113.101-57.202L141.601-63.4997Q143.467-63.8956 144.55-65.2149Q145.632-66.5341 145.632-68.4009ZM20.4339-65.7632L76.5731-65.7632Q78.397-65.7632 79.6501-67.0465Q80.9032-68.3299 80.9032-70.0548Q80.9032-71.8786 79.6501-73.1317Q78.397-74.3848 76.5731-74.3848L20.4339-74.3848Q18.5902-74.3848 17.3371-73.1317Q16.084-71.8786 16.084-70.0548Q16.084-68.3299 17.3371-67.0465Q18.5902-65.7632 20.4339-65.7632ZM20.4339-43.5392L76.5731-43.5392Q78.397-43.5392 79.6501-44.8115Q80.9032-46.0839 80.9032-47.8507Q80.9032-49.6547 79.6501-50.8967Q78.397-52.1388 76.5731-52.1388L20.4339-52.1388Q18.5902-52.1388 17.3371-50.8967Q16.084-49.6547 16.084-47.8507Q16.084-46.0839 17.347-44.8115Q18.6101-43.5392 20.4339-43.5392ZM20.4339-21.2534L76.5731-21.2534Q78.397-21.2534 79.6501-22.5048Q80.9032-23.7561 80.9032-25.5649Q80.9032-27.3269 79.6501-28.59Q78.397-29.853 76.5731-29.853L20.4339-29.853Q18.5902-29.853 17.3371-28.59Q16.084-27.3269 16.084-25.5649Q16.084-23.7561 17.347-22.5048Q18.6101-21.2534 20.4339-21.2534Z"/>
  </g>
  <g id="Medium-L" transform="matrix(1 0 0 1 1666.31 1556)">
   <path d="M144.447-68.2535L144.447-91.5796Q144.447-94.2337 142.583-95.7411Q140.718-97.2484 138.155-96.6812L106.323-89.7921Q100.088-88.44 100.088-83.065L100.208-13.6736Q100.574-9.00983 96.3956-8.242L86.3389-6.14057Q76.8127-4.10109 72.1742 0.671526Q67.5357 5.44414 67.5357 12.7521Q67.5357 20.1132 72.6353 24.7423Q77.7348 29.3714 85.7151 29.3714Q90.7034 29.3714 96.1361 26.7771Q101.569 24.1828 105.328 18.6121Q109.087 13.0414 109.087 4.13607L109.087-53.1008Q109.087-55.5384 109.7-56.3224Q110.314-57.1065 112.544-57.5463L140.767-63.7921Q142.479-64.1558 143.463-65.3486Q144.447-66.5414 144.447-68.2535ZM20.1627-65.6599L76.726-65.6599Q78.4373-65.6599 79.6089-66.8597Q80.7805-68.0594 80.7805-69.6797Q80.7805-71.391 79.6089-72.5626Q78.4373-73.7343 76.726-73.7343L20.1627-73.7343Q18.4272-73.7343 17.2556-72.5626Q16.084-71.391 16.084-69.6797Q16.084-68.0594 17.2556-66.8597Q18.4272-65.6599 20.1627-65.6599ZM20.1627-43.5097L76.726-43.5097Q78.4373-43.5097 79.6089-44.6987Q80.7805-45.8877 80.7805-47.5537Q80.7805-49.2409 79.6089-50.4017Q78.4373-51.5625 76.726-51.5625L20.1627-51.5625Q18.4272-51.5625 17.2556-50.4017Q16.084-49.2409 16.084-47.5537Q16.084-45.8877 17.2677-44.6987Q18.4514-43.5097 20.1627-43.5097ZM20.1627-21.2897L76.726-21.2897Q78.4373-21.2897 79.6089-22.4558Q80.7805-23.6218 80.7805-25.3337Q80.7805-26.975 79.6089-28.1587Q78.4373-29.3425 76.726-29.3425L20.1627-29.3425Q18.4272-29.3425 17.2556-28.1587Q16.084-26.975 16.084-25.3337Q16.084-23.6218 17.2677-22.4558Q18.4514-21.2897 20.1627-21.2897Z"/>
  </g>
  <g id="Regular-L" transform="matrix(1 0 0 1 1370.37 1556)">
   <path d="M142.902-68.0613L142.902-91.3634Q142.902-93.7199 141.261-95.0441Q139.619-96.3683 137.343-95.8649L105.766-89.0434Q100.072-87.804 100.072-82.9093L100.221-13.4483Q100.626-8.32023 95.9896-7.4775L85.9965-5.38658Q76.7118-3.38488 72.2512 1.19801Q67.7906 5.7809 67.7906 12.8017Q67.7906 19.8435 72.6952 24.2804Q77.5998 28.7173 85.2552 28.7173Q89.8006 28.7173 95.0863 26.3031Q100.372 23.8888 104.134 18.4676Q107.896 13.0463 107.896 4.04475L107.896-52.9897Q107.896-55.6402 108.648-56.5871Q109.4-57.5339 111.818-57.9955L139.679-64.1735Q141.189-64.4952 142.046-65.5231Q142.902-66.551 142.902-68.0613ZM19.8089-65.5252L76.9254-65.5252Q78.4898-65.5252 79.5552-66.6159Q80.6206-67.7066 80.6206-69.1906Q80.6206-70.755 79.5552-71.8203Q78.4898-72.8857 76.9254-72.8857L19.8089-72.8857Q18.2147-72.8857 17.1493-71.8203Q16.084-70.755 16.084-69.1906Q16.084-67.7066 17.1493-66.6159Q18.2147-65.5252 19.8089-65.5252ZM19.8089-43.4713L76.9254-43.4713Q78.4898-43.4713 79.5552-44.5515Q80.6206-45.6317 80.6206-47.1664Q80.6206-48.7011 79.5552-49.756Q78.4898-50.8109 76.9254-50.8109L19.8089-50.8109Q18.2147-50.8109 17.1493-49.756Q16.084-48.7011 16.084-47.1664Q16.084-45.6317 17.1642-44.5515Q18.2444-43.4713 19.8089-43.4713ZM19.8089-21.3369L76.9254-21.3369Q78.4898-21.3369 79.5552-22.3918Q80.6206-23.4467 80.6206-25.0321Q80.6206-26.5161 79.5552-27.5963Q78.4898-28.6765 76.9254-28.6765L19.8089-28.6765Q18.2147-28.6765 17.1493-27.5963Q16.084-26.5161 16.084-25.0321Q16.084-23.4467 17.1642-22.3918Q18.2444-21.3369 19.8089-21.3369Z"/>
  </g>
  <g id="Light-L" transform="matrix(1 0 0 1 1074.79 1556)">
   <path d="M140.624-67.5483L140.624-90.3373Q140.624-92.4886 139.127-93.6999Q137.629-94.9113 135.558-94.4488L105.109-87.9147Q100.093-86.819 100.093-82.3757L100.344-13.8177Q100.585-8.25867 95.5791-7.33385L85.6271-5.24293Q76.6502-3.30279 72.3025 1.08514Q67.9548 5.47307 67.9548 12.2887Q67.9548 19.0842 72.6644 23.3364Q77.374 27.5886 84.7626 27.5886Q89.226 27.5886 94.3578 25.2564Q99.4896 22.9243 103.129 17.6467Q106.768 12.3691 106.768 3.59327L106.768-52.6203Q106.768-55.435 107.622-56.5357Q108.477-57.6365 111.12-58.1391L137.729-64.0299Q139.117-64.3516 139.871-65.2563Q140.624-66.161 140.624-67.5483ZM19.0495-65.6483L77.2333-65.6483Q78.4898-65.6483 79.3192-66.4927Q80.1485-67.3372 80.1485-68.5133Q80.1485-69.7699 79.3192-70.5993Q78.4898-71.4286 77.2333-71.4286L19.0495-71.4286Q17.7427-71.4286 16.9133-70.5993Q16.084-69.7699 16.084-68.5133Q16.084-67.3372 16.9133-66.4927Q17.7427-65.6483 19.0495-65.6483ZM19.0495-44.0254L77.2333-44.0254Q78.4898-44.0254 79.3192-44.8799Q80.1485-45.7343 80.1485-46.9407Q80.1485-48.147 79.3192-48.9864Q78.4898-49.8258 77.2333-49.8258L19.0495-49.8258Q17.7427-49.8258 16.9133-48.9864Q16.084-48.147 16.084-46.9407Q16.084-45.7343 16.9385-44.8799Q17.7929-44.0254 19.0495-44.0254ZM19.0495-22.322L77.2333-22.322Q78.4898-22.322 79.3192-23.1614Q80.1485-24.0008 80.1485-25.2373Q80.1485-26.4135 79.3192-27.268Q78.4898-28.1224 77.2333-28.1224L19.0495-28.1224Q17.7427-28.1224 16.9133-27.268Q16.084-26.4135 16.084-25.2373Q16.084-24.0008 16.9385-23.1614Q17.7929-22.322 19.0495-22.322Z"/>
  </g>
  <g id="Thin-L" transform="matrix(1 0 0 1 779.566 1556)">
   <path d="M137.612-66.8697L137.612-88.9802Q137.612-90.8601 136.304-91.9221Q134.996-92.9842 133.197-92.576L104.24-86.4219Q100.12-85.5161 100.12-81.67L100.507-14.3062Q100.531-8.17724 95.0363-7.14385L85.1386-5.05293Q76.5688-3.19422 72.3704 0.935858Q68.172 5.06594 68.172 11.6101Q68.172 18.0799 72.6237 22.0879Q77.0755 26.0958 84.1112 26.0958Q88.466 26.0958 93.3942 23.8722Q98.3225 21.6486 101.799 16.561Q105.275 11.4734 105.275 2.99614L105.275-52.1318Q105.275-55.1636 106.265-56.4679Q107.255-57.7722 110.197-58.3291L135.151-63.8399Q136.375-64.1616 136.994-64.9035Q137.612-65.6453 137.612-66.8697ZM18.0453-65.8112L77.6404-65.8112Q78.4898-65.8112 79.0071-66.3299Q79.5243-66.8486 79.5243-67.6177Q79.5243-68.4671 79.0071-68.9843Q78.4898-69.5016 77.6404-69.5016L18.0453-69.5016Q17.1184-69.5016 16.6012-68.9843Q16.084-68.4671 16.084-67.6177Q16.084-66.8486 16.6012-66.3299Q17.1184-65.8112 18.0453-65.8112ZM18.0453-44.7582L77.6404-44.7582Q78.4898-44.7582 79.0071-45.3141Q79.5243-45.87 79.5243-46.6421Q79.5243-47.4142 79.0071-47.9686Q78.4898-48.523 77.6404-48.523L18.0453-48.523Q17.1184-48.523 16.6012-47.9686Q16.084-47.4142 16.084-46.6421Q16.084-45.87 16.6399-45.3141Q17.1958-44.7582 18.0453-44.7582ZM18.0453-23.6248L77.6404-23.6248Q78.4898-23.6248 79.0071-24.1792Q79.5243-24.7336 79.5243-25.5087Q79.5243-26.2778 79.0071-26.8337Q78.4898-27.3896 77.6404-27.3896L18.0453-27.3896Q17.1184-27.3896 16.6012-26.8337Q16.084-26.2778 16.084-25.5087Q16.084-24.7336 16.6399-24.1792Q17.1958-23.6248 18.0453-23.6248Z"/>
  </g>
  <g id="Ultralight-L" transform="matrix(1 0 0 1 483.617 1556)">
   <path d="M136.069-66.5222L136.069-88.2851Q136.069-90.026 134.858-91.0115Q133.648-91.9971 131.987-91.6168L103.795-85.6573Q100.134-84.8489 100.134-81.3086L100.59-14.5564Q100.503-8.13553 94.7582-7.04654L84.8884-4.95562Q76.5271-3.13862 72.4051 0.859398Q68.2832 4.85741 68.2832 11.2626Q68.2832 17.5656 72.6029 21.4484Q76.9226 25.3312 83.7776 25.3312Q88.0767 25.3312 92.9007 23.1632Q97.7247 20.9952 101.117 16.0049Q104.51 11.0147 104.51 2.6903L104.51-51.8815Q104.51-55.0246 105.57-56.4331Q106.63-57.8417 109.725-58.4264L133.83-63.7426Q134.971-64.0643 135.52-64.7227Q136.069-65.3812 136.069-66.5222ZM17.5309-65.8946L77.8489-65.8946Q78.4898-65.8946 78.8472-66.2465Q79.2045-66.5984 79.2045-67.1589Q79.2045-67.7998 78.8472-68.1572Q78.4898-68.5145 77.8489-68.5145L17.5309-68.5145Q16.7987-68.5145 16.4413-68.1572Q16.084-67.7998 16.084-67.1589Q16.084-66.5984 16.4413-66.2465Q16.7987-65.8946 17.5309-65.8946ZM17.5309-45.1336L77.8489-45.1336Q78.4898-45.1336 78.8472-45.5366Q79.2045-45.9396 79.2045-46.4892Q79.2045-47.0388 78.8472-47.4472Q78.4898-47.8557 77.8489-47.8557L17.5309-47.8557Q16.7987-47.8557 16.4413-47.4472Q16.084-47.0388 16.084-46.4892Q16.084-45.9396 16.487-45.5366Q16.89-45.1336 17.5309-45.1336ZM17.5309-24.2921L77.8489-24.2921Q78.4898-24.2921 78.8472-24.7006Q79.2045-25.109 79.2045-25.6477Q79.2045-26.2082 78.8472-26.6112Q78.4898-27.0142 77.8489-27.0142L17.5309-27.0142Q16.7987-27.0142 16.4413-26.6112Q16.084-26.2082 16.084-25.6477Q16.084-25.109 16.487-24.7006Q16.89-24.2921 17.5309-24.2921Z"/>
  </g>
  <g id="Black-M" transform="matrix(1 0 0 1 2868.01 1126)">
   <path d="M118.328-61.5348L118.328-79.5434Q118.328-82.9158 115.894-84.898Q113.46-86.8802 110.207-86.1579L84.7435-80.6034Q77.6209-79.0801 77.6209-72.8331L77.6194-19.7044Q77.6635-18.106 76.4327-17.8319L68.3585-16.1549Q59.9587-14.4199 55.5751-9.90529Q51.1916-5.39071 51.1916 1.53818Q51.1916 8.64417 55.9839 13.0625Q60.7763 17.4809 68.381 17.4809Q74.2797 17.4809 79.1209 14.6606Q83.962 11.8404 86.8169 6.87741Q89.6718 1.91444 89.6718-4.45981L89.6718-49.4664Q89.6718-50.4195 89.5381-50.3214Q89.4043-50.2233 90.3357-50.4771L113.459-55.5332Q115.683-56.0108 117.005-57.6609Q118.328-59.311 118.328-61.5348ZM17.0098-59.4743L58.6191-59.4743Q60.5239-59.4743 61.8461-60.8278Q63.1683-62.1814 63.1683-63.9667Q63.1683-65.8715 61.8461-67.1937Q60.5239-68.5159 58.6191-68.5159L17.0098-68.5159Q15.1054-68.5159 13.7832-67.1937Q12.4609-65.8715 12.4609-63.9667Q12.4609-62.1814 13.7832-60.8278Q15.1054-59.4743 17.0098-59.4743ZM17.0098-42.0122L58.6191-42.0122Q60.5239-42.0122 61.8461-43.3628Q63.1683-44.7134 63.1683-46.5043Q63.1683-48.4094 61.8461-49.7287Q60.5239-51.048 58.6191-51.048L17.0098-51.048Q15.1054-51.048 13.7832-49.7287Q12.4609-48.4094 12.4609-46.5043Q12.4609-44.7134 13.783-43.3628Q15.1051-42.0122 17.0098-42.0122ZM17.0098-24.5449L58.6191-24.5449Q60.5239-24.5449 61.8461-25.8927Q63.1683-27.2406 63.1683-29.037Q63.1683-30.9365 61.8461-32.2586Q60.5239-33.5806 58.6191-33.5806L17.0098-33.5806Q15.1054-33.5806 13.7832-32.2586Q12.4609-30.9365 12.4609-29.037Q12.4609-27.2406 13.783-25.8927Q15.1051-24.5449 17.0098-24.5449Z"/>
  </g>
  <g id="Heavy-M" transform="matrix(1 0 0 1 2572.05 1126)">
   <path d="M116.837-61.3987L116.837-79.4868Q116.837-82.5217 114.658-84.2934Q112.479-86.0651 109.55-85.4158L84.1705-79.8862Q77.5967-78.4765 77.5967-72.7481L77.6089-19.3362Q77.7388-17.2353 76.0004-16.8829L67.9991-15.2194Q59.8426-13.5195 55.6628-9.20625Q51.4831-4.89296 51.4831 1.71199Q51.4831 8.4616 56.0674 12.6733Q60.6517 16.885 67.8973 16.885Q73.2461 16.885 77.9318 14.2779Q82.6176 11.6707 85.5031 6.8685Q88.3887 2.06626 88.3887-4.47987L88.3887-49.4034Q88.3887-50.5942 88.4102-50.6716Q88.4317-50.749 89.5551-51.0218L112.484-56.053Q114.475-56.4767 115.656-57.9418Q116.837-59.407 116.837-61.3987ZM16.7195-59.2752L58.8086-59.2752Q60.5913-59.2752 61.828-60.5418Q63.0647-61.8085 63.0647-63.4852Q63.0647-65.2679 61.828-66.5046Q60.5913-67.7413 58.8086-67.7413L16.7195-67.7413Q14.9343-67.7413 13.6976-66.5046Q12.4609-65.2679 12.4609-63.4852Q12.4609-61.8085 13.6976-60.5418Q14.9343-59.2752 16.7195-59.2752ZM16.7195-41.8439L58.8086-41.8439Q60.5913-41.8439 61.828-43.1036Q63.0647-44.3633 63.0647-46.0563Q63.0647-47.8366 61.828-49.0664Q60.5913-50.2962 58.8086-50.2962L16.7195-50.2962Q14.9343-50.2962 13.6976-49.0664Q12.4609-47.8366 12.4609-46.0563Q12.4609-44.3633 13.6989-43.1036Q14.9368-41.8439 16.7195-41.8439ZM16.7195-24.3939L58.8086-24.3939Q60.5913-24.3939 61.828-25.6455Q63.0647-26.8971 63.0647-28.6063Q63.0647-30.3703 61.828-31.6082Q60.5913-32.8462 58.8086-32.8462L16.7195-32.8462Q14.9343-32.8462 13.6976-31.6082Q12.4609-30.3703 12.4609-28.6063Q12.4609-26.8971 13.6989-25.6455Q14.9368-24.3939 16.7195-24.3939Z"/>
  </g>
  <g id="Bold-M" transform="matrix(1 0 0 1 2276.18 1126)">
   <path d="M115.169-61.2464L115.169-79.4235Q115.169-82.0809 113.275-83.6172Q111.381-85.1534 108.815-84.5856L83.5294-79.084Q77.5696-77.8013 77.5696-72.6531L77.5973-18.9243Q77.8231-16.2614 75.5169-15.8213L67.5971-14.1728Q59.7128-12.5124 55.761-8.42428Q51.8091-4.33616 51.8091 1.90642Q51.8091 8.25736 56.1607 12.2379Q60.5124 16.2184 67.3562 16.2184Q72.0897 16.2184 76.6017 13.8497Q81.1136 11.481 84.0335 6.85853Q86.9534 2.23609 86.9534-4.50231L86.9534-49.333Q86.9534-50.7895 87.1485-51.0634Q87.3437-51.3372 88.6817-51.6312L111.393-56.6344Q113.125-56.9978 114.147-58.2561Q115.169-59.5144 115.169-61.2464ZM16.3946-59.0525L59.0205-59.0525Q60.6666-59.0525 61.8077-60.2219Q62.9487-61.3914 62.9487-62.9466Q62.9487-64.5927 61.8077-65.7337Q60.6666-66.8748 59.0205-66.8748L16.3946-66.8748Q14.743-66.8748 13.602-65.7337Q12.4609-64.5927 12.4609-62.9466Q12.4609-61.3914 13.602-60.2219Q14.743-59.0525 16.3946-59.0525ZM16.3946-41.6556L59.0205-41.6556Q60.6666-41.6556 61.8077-42.8137Q62.9487-43.9717 62.9487-45.5552Q62.9487-47.1958 61.8077-48.3255Q60.6666-49.4552 59.0205-49.4552L16.3946-49.4552Q14.743-49.4552 13.602-48.3255Q12.4609-47.1958 12.4609-45.5552Q12.4609-43.9717 13.6047-42.8137Q14.7485-41.6556 16.3946-41.6556ZM16.3946-24.2249L59.0205-24.2249Q60.6666-24.2249 61.8077-25.3689Q62.9487-26.5129 62.9487-28.1246Q62.9487-29.7369 61.8077-30.8807Q60.6666-32.0245 59.0205-32.0245L16.3946-32.0245Q14.743-32.0245 13.602-30.8807Q12.4609-29.7369 12.4609-28.1246Q12.4609-26.5129 13.6047-25.3689Q14.7485-24.2249 16.3946-24.2249Z"/>
  </g>
  <g id="Semibold-M" transform="matrix(1 0 0 1 1980.04 1126)">
   <path d="M114.02-61.1415L114.02-79.3798Q114.02-81.7771 112.322-83.151Q110.625-84.5248 108.308-84.0132L83.0875-78.5309Q77.551-77.3358 77.551-72.5876L77.5892-18.6403Q77.8812-15.59 75.1835-15.0895L67.3199-13.4514Q59.6233-11.8181 55.8286-7.88519Q52.0339-3.9523 52.0339 2.04046Q52.0339 8.11657 56.2251 11.9377Q60.4163 15.7589 66.9832 15.7589Q71.2926 15.7589 75.6847 13.5545Q80.0768 11.3501 83.0204 6.85165Q85.9639 2.35317 85.9639-4.51778L85.9639-49.2844Q85.9639-50.9242 86.2787-51.3334Q86.5936-51.7427 88.0797-52.0513L110.64-57.0352Q112.193-57.357 113.106-58.4727Q114.02-59.5884 114.02-61.1415ZM16.1707-58.8989L59.1666-58.8989Q60.7186-58.8989 61.7937-60.0014Q62.8688-61.1038 62.8688-62.5753Q62.8688-64.1272 61.7937-65.2023Q60.7186-66.2774 59.1666-66.2774L16.1707-66.2774Q14.6111-66.2774 13.536-65.2023Q12.4609-64.1272 12.4609-62.5753Q12.4609-61.1038 13.536-60.0014Q14.6111-58.8989 16.1707-58.8989ZM16.1707-41.5258L59.1666-41.5258Q60.7186-41.5258 61.7937-42.6138Q62.8688-43.7018 62.8688-45.2098Q62.8688-46.7541 61.7937-47.8147Q60.7186-48.8754 59.1666-48.8754L16.1707-48.8754Q14.6111-48.8754 13.536-47.8147Q12.4609-46.7541 12.4609-45.2098Q12.4609-43.7018 13.5398-42.6138Q14.6188-41.5258 16.1707-41.5258ZM16.1707-24.1085L59.1666-24.1085Q60.7186-24.1085 61.7937-25.1782Q62.8688-26.248 62.8688-27.7925Q62.8688-29.3003 61.7937-30.3792Q60.7186-31.4581 59.1666-31.4581L16.1707-31.4581Q14.6111-31.4581 13.536-30.3792Q12.4609-29.3003 12.4609-27.7925Q12.4609-26.248 13.5398-25.1782Q14.6188-24.1085 16.1707-24.1085Z"/>
  </g>
  <g id="Medium-M" transform="matrix(1 0 0 1 1683.77 1126)">
   <path d="M113.148-61.0619L113.148-79.3467Q113.148-81.5467 111.6-82.7975Q110.052-84.0483 107.924-83.5792L82.7524-78.1116Q77.5368-76.9829 77.5368-72.5379L77.5831-18.425Q77.9253-15.0809 74.9307-14.5345L67.1098-12.9043Q59.5555-11.2916 55.8799-7.47642Q52.2044-3.66124 52.2044 2.1421Q52.2044 8.00981 56.2739 11.7101Q60.3435 15.4105 66.7003 15.4105Q70.6881 15.4105 74.9894 13.3307Q79.2907 11.2509 82.2522 6.84644Q85.2136 2.44194 85.2136-4.52951L85.2136-49.2476Q85.2136-51.0263 85.6192-51.5382Q86.0249-52.0501 87.6232-52.3699L110.07-57.3391Q111.487-57.6294 112.318-58.637Q113.148-59.6445 113.148-61.0619ZM16.0009-58.7825L59.2774-58.7825Q60.758-58.7825 61.7831-59.8341Q62.8082-60.8858 62.8082-62.2937Q62.8082-63.7743 61.7831-64.7994Q60.758-65.8245 59.2774-65.8245L16.0009-65.8245Q14.5111-65.8245 13.486-64.7994Q12.4609-63.7743 12.4609-62.2937Q12.4609-60.8858 13.486-59.8341Q14.5111-58.7825 16.0009-58.7825ZM16.0009-41.4274L59.2774-41.4274Q60.758-41.4274 61.7831-42.4622Q62.8082-43.4971 62.8082-44.9478Q62.8082-46.4191 61.7831-47.4275Q60.758-48.4358 59.2774-48.4358L16.0009-48.4358Q14.5111-48.4358 13.486-47.4275Q12.4609-46.4191 12.4609-44.9478Q12.4609-43.4971 13.4906-42.4622Q14.5204-41.4274 16.0009-41.4274ZM16.0009-24.0202L59.2774-24.0202Q60.758-24.0202 61.7831-25.0337Q62.8082-26.0471 62.8082-27.5406Q62.8082-28.9692 61.7831-29.9989Q60.758-31.0286 59.2774-31.0286L16.0009-31.0286Q14.5111-31.0286 13.486-29.9989Q12.4609-28.9692 12.4609-27.5406Q12.4609-26.0471 13.4906-25.0337Q14.5204-24.0202 16.0009-24.0202Z"/>
  </g>
  <g id="Regular-M" transform="matrix(1 0 0 1 1387.63 1126)">
   <path d="M112.011-60.9581L112.011-79.3035Q112.011-81.2461 110.657-82.3364Q109.303-83.4266 107.423-83.0132L82.3153-77.5646Q77.5184-76.5225 77.5184-72.4731L77.5751-18.1442Q77.9828-14.4168 74.601-13.8107L66.8356-12.1908Q59.4669-10.6049 55.9468-6.94326Q52.4267-3.28161 52.4267 2.27467Q52.4267 7.87056 56.3376 11.4133Q60.2484 14.956 66.3314 14.956Q69.8997 14.956 74.0825 13.0388Q78.2653 11.1216 81.2501 6.83965Q84.235 2.55773 84.235-4.54481L84.235-49.1996Q84.235-51.1595 84.759-51.8053Q85.283-52.4512 87.0277-52.7854L109.326-57.7355Q110.566-57.9847 111.289-58.8512Q112.011-59.7177 112.011-60.9581ZM15.7794-58.6307L59.4219-58.6307Q60.8094-58.6307 61.7692-59.616Q62.7291-60.6014 62.7291-61.9265Q62.7291-63.3139 61.7692-64.2738Q60.8094-65.2336 59.4219-65.2336L15.7794-65.2336Q14.3807-65.2336 13.4208-64.2738Q12.4609-63.3139 12.4609-61.9265Q12.4609-60.6014 13.4208-59.616Q14.3807-58.6307 15.7794-58.6307ZM15.7794-41.299L59.4219-41.299Q60.8094-41.299 61.7692-42.2645Q62.7291-43.2301 62.7291-44.6062Q62.7291-45.9823 61.7692-46.9223Q60.8094-47.8624 59.4219-47.8624L15.7794-47.8624Q14.3807-47.8624 13.4208-46.9223Q12.4609-45.9823 12.4609-44.6062Q12.4609-43.2301 13.4265-42.2645Q14.392-41.299 15.7794-41.299ZM15.7794-23.905L59.4219-23.905Q60.8094-23.905 61.7692-24.8451Q62.7291-25.7851 62.7291-27.2122Q62.7291-28.5373 61.7692-29.5029Q60.8094-30.4684 59.4219-30.4684L15.7794-30.4684Q14.3807-30.4684 13.4208-29.5029Q12.4609-28.5373 12.4609-27.2122Q12.4609-25.7851 13.4265-24.8451Q14.392-23.905 15.7794-23.905Z"/>
  </g>
  <g id="Light-M" transform="matrix(1 0 0 1 1091.93 1126)">
   <path d="M109.968-60.4981L109.968-78.3836Q109.968-80.1422 108.744-81.1312Q107.519-82.1203 105.822-81.7436L81.7265-76.5526Q77.5368-75.6394 77.5368-71.9947L77.6855-18.4753Q77.946-14.3616 74.233-13.6819L66.5044-12.062Q59.4117-10.5313 55.9928-7.04445Q52.5739-3.55759 52.5739 1.81469Q52.5739 7.18979 56.31 10.5669Q60.0461 13.944 65.8898 13.944Q69.3845 13.944 73.4293 12.1004Q77.4741 10.2568 80.3486 6.10369Q83.223 1.95057 83.223-4.94959L83.223-48.8684Q83.223-50.9755 83.8391-51.7593Q84.4551-52.5432 86.4022-52.9142L107.578-57.6067Q108.708-57.856 109.338-58.6121Q109.968-59.3682 109.968-60.4981ZM15.0987-58.7411L59.6979-58.7411Q60.8094-58.7411 61.5576-59.5056Q62.3059-60.2702 62.3059-61.3193Q62.3059-62.4308 61.5576-63.179Q60.8094-63.9273 59.6979-63.9273L15.0987-63.9273Q13.9575-63.9273 13.2092-63.179Q12.4609-62.4308 12.4609-61.3193Q12.4609-60.2702 13.2092-59.5056Q13.9575-58.7411 15.0987-58.7411ZM15.0987-41.7958L59.6979-41.7958Q60.8094-41.7958 61.5576-42.5589Q62.3059-43.3221 62.3059-44.4038Q62.3059-45.4855 61.5576-46.2323Q60.8094-46.9792 59.6979-46.9792L15.0987-46.9792Q13.9575-46.9792 13.2092-46.2323Q12.4609-45.4855 12.4609-44.4038Q12.4609-43.3221 13.2241-42.5589Q13.9872-41.7958 15.0987-41.7958ZM15.0987-24.7882L59.6979-24.7882Q60.8094-24.7882 61.5576-25.535Q62.3059-26.2819 62.3059-27.3962Q62.3059-28.4453 61.5576-29.2085Q60.8094-29.9716 59.6979-29.9716L15.0987-29.9716Q13.9575-29.9716 13.2092-29.2085Q12.4609-28.4453 12.4609-27.3962Q12.4609-26.2819 13.2241-25.535Q13.9872-24.7882 15.0987-24.7882Z"/>
  </g>
  <g id="Thin-M" transform="matrix(1 0 0 1 796.555 1126)">
   <path d="M107.267-59.8897L107.267-77.1669Q107.267-78.6821 106.213-79.5374Q105.158-80.3926 103.705-80.0646L80.9478-75.2143Q77.5611-74.4713 77.5611-71.362L77.8315-18.9134Q77.8973-14.2886 73.7464-13.5116L66.0664-11.8917Q59.3387-10.434 56.0537-7.17829Q52.7686-3.9226 52.7686 1.20634Q52.7686 6.28943 56.2735 9.44755Q59.7784 12.6057 65.3058 12.6057Q68.7032 12.6057 72.5655 10.8594Q76.4278 9.1131 79.1562 5.13032Q81.8847 1.14754 81.8847-5.48494L81.8847-48.4304Q81.8847-50.7322 82.6223-51.6985Q83.36-52.6648 85.5748-53.0845L105.266-57.4364Q106.25-57.6856 106.759-58.2957Q107.267-58.9058 107.267-59.8897ZM14.1983-58.8871L60.0629-58.8871Q60.8094-58.8871 61.2778-59.3596Q61.7462-59.8322 61.7462-60.5163Q61.7462-61.2627 61.2778-61.7312Q60.8094-62.1996 60.0629-62.1996L14.1983-62.1996Q13.3978-62.1996 12.9294-61.7312Q12.4609-61.2627 12.4609-60.5163Q12.4609-59.8322 12.9294-59.3596Q13.3978-58.8871 14.1983-58.8871ZM14.1983-42.4528L60.0629-42.4528Q60.8094-42.4528 61.2778-42.9483Q61.7462-43.4437 61.7462-44.1361Q61.7462-44.8285 61.2778-45.3198Q60.8094-45.8112 60.0629-45.8112L14.1983-45.8112Q13.3978-45.8112 12.9294-45.3198Q12.4609-44.8285 12.4609-44.1361Q12.4609-43.4437 12.9564-42.9483Q13.4519-42.4528 14.1983-42.4528ZM14.1983-25.9562L60.0629-25.9562Q60.8094-25.9562 61.2778-26.4476Q61.7462-26.9389 61.7462-27.6395Q61.7462-28.3237 61.2778-28.8191Q60.8094-29.3146 60.0629-29.3146L14.1983-29.3146Q13.3978-29.3146 12.9294-28.8191Q12.4609-28.3237 12.4609-27.6395Q12.4609-26.9389 12.9564-26.4476Q13.4519-25.9562 14.1983-25.9562Z"/>
  </g>
  <g id="Ultralight-M" transform="matrix(1 0 0 1 500.528 1126)">
   <path d="M105.884-59.5781L105.884-76.5437Q105.884-77.9343 104.917-78.721Q103.949-79.5076 102.621-79.2046L80.549-74.5287Q77.5736-73.8731 77.5736-71.038L77.9063-19.1377Q77.8724-14.2513 73.4971-13.4243L65.8421-11.8044Q59.3013-10.3841 56.0848-7.24684Q52.8683-4.10956 52.8683 0.894743Q52.8683 5.82827 56.2548 8.87421Q59.6413 11.9202 65.0067 11.9202Q68.3542 11.9202 72.123 10.2237Q75.8918 8.5273 78.5455 4.63176Q81.1992 0.736233 81.1992-5.75915L81.1992-48.206Q81.1992-50.6075 81.9992-51.6673Q82.7992-52.7271 85.151-53.1718L104.082-57.3491Q104.992-57.5984 105.438-58.1337Q105.884-58.669 105.884-59.5781ZM13.7372-58.9619L60.2499-58.9619Q60.8094-58.9619 61.1345-59.2848Q61.4596-59.6078 61.4596-60.105Q61.4596-60.6645 61.1345-60.9896Q60.8094-61.3147 60.2499-61.3147L13.7372-61.3147Q13.1111-61.3147 12.786-60.9896Q12.4609-60.6645 12.4609-60.105Q12.4609-59.6078 12.786-59.2848Q13.1111-58.9619 13.7372-58.9619ZM13.7372-42.7893L60.2499-42.7893Q60.8094-42.7893 61.1345-43.1477Q61.4596-43.5061 61.4596-43.999Q61.4596-44.4919 61.1345-44.8524Q60.8094-45.2129 60.2499-45.2129L13.7372-45.2129Q13.1111-45.2129 12.786-44.8524Q12.4609-44.4919 12.4609-43.999Q12.4609-43.5061 12.8193-43.1477Q13.1777-42.7893 13.7372-42.7893ZM13.7372-26.5545L60.2499-26.5545Q60.8094-26.5545 61.1345-26.915Q61.4596-27.2755 61.4596-27.7642Q61.4596-28.2613 61.1345-28.6197Q60.8094-28.9781 60.2499-28.9781L13.7372-28.9781Q13.1111-28.9781 12.786-28.6197Q12.4609-28.2613 12.4609-27.7642Q12.4609-27.2755 12.8193-26.915Q13.1777-26.5545 13.7372-26.5545Z"/>
  </g>
  <g id="Black-S" transform="matrix(1 0 0 1 2881.98 696)">
   <path d="M93.0664-55.8594L93.0664-69.9219Q93.0664-72.6562 91.0889-74.2676Q89.1113-75.8789 86.4746-75.293L66.5527-70.9473Q60.8398-69.7266 60.8398-64.6973L60.8398-23.1934Q60.8398-22.0703 60.0098-21.875L53.6621-20.5566Q47.0215-19.1895 43.5303-15.6006Q40.0391-12.0117 40.0391-6.49414Q40.0391-0.830078 43.8477 2.68555Q47.6562 6.20117 53.7109 6.20117Q58.4961 6.20117 62.3291 3.93066Q66.1621 1.66016 68.3838-2.27051Q70.6055-6.20117 70.6055-11.1328L70.6055-46.3867Q70.6055-47.0703 70.459-46.9482Q70.3125-46.8262 70.9961-47.0215L89.1113-50.9766Q90.918-51.3672 91.9922-52.71Q93.0664-54.0527 93.0664-55.8594ZM13.3789-54.2969L45.8984-54.2969Q47.4121-54.2969 48.4619-55.3711Q49.5117-56.4453 49.5117-57.8613Q49.5117-59.375 48.4619-60.4248Q47.4121-61.4746 45.8984-61.4746L13.3789-61.4746Q11.8652-61.4746 10.8154-60.4248Q9.76562-59.375 9.76562-57.8613Q9.76562-56.4453 10.8154-55.3711Q11.8652-54.2969 13.3789-54.2969ZM13.3789-40.625L45.8984-40.625Q47.4121-40.625 48.4619-41.6992Q49.5117-42.7734 49.5117-44.1895Q49.5117-45.7031 48.4619-46.7529Q47.4121-47.8027 45.8984-47.8027L13.3789-47.8027Q11.8652-47.8027 10.8154-46.7529Q9.76562-45.7031 9.76562-44.1895Q9.76562-42.7734 10.8154-41.6992Q11.8652-40.625 13.3789-40.625ZM13.3789-26.9531L45.8984-26.9531Q47.4121-26.9531 48.4619-28.0273Q49.5117-29.1016 49.5117-30.5176Q49.5117-32.0312 48.4619-33.0811Q47.4121-34.1309 45.8984-34.1309L13.3789-34.1309Q11.8652-34.1309 10.8154-33.0811Q9.76562-32.0312 9.76562-30.5176Q9.76562-29.1016 10.8154-28.0273Q11.8652-26.9531 13.3789-26.9531Z"/>
  </g>
  <g id="Heavy-S" transform="matrix(1 0 0 1 2585.79 696)">
   <path d="M92.0523-55.8018L92.0523-69.991Q92.0523-72.4603 90.2764-73.9046Q88.5005-75.3488 86.1174-74.8205L66.1379-70.4632Q60.8168-69.3232 60.8168-64.6857L60.8168-22.8361Q60.909-21.3327 59.6871-21.0798L53.397-19.773Q46.9293-18.4288 43.5994-14.9898Q40.2696-11.5507 40.2696-6.2867Q40.2696-0.899225 43.9226 2.46082Q47.5756 5.82086 53.3537 5.82086Q57.6779 5.82086 61.3956 3.72322Q65.1134 1.62558 67.3754-2.18407Q69.6374-5.99373 69.6374-11.0982L69.6374-46.3752Q69.6374-47.2432 69.6119-47.2536Q69.5865-47.2641 70.4083-47.4709L88.5005-51.4375Q90.1228-51.7821 91.0875-52.9808Q92.0523-54.1795 92.0523-55.8018ZM13.2176-54.1125L46.0252-54.1125Q47.4697-54.1125 48.4734-55.1406Q49.4771-56.1687 49.4771-57.5271Q49.4771-58.9716 48.4734-59.9754Q47.4697-60.9791 46.0252-60.9791L13.2176-60.9791Q11.773-60.9791 10.7693-59.9754Q9.76562-58.9716 9.76562-57.5271Q9.76562-56.1687 10.7693-55.1406Q11.773-54.1125 13.2176-54.1125ZM13.2176-40.4176L46.0252-40.4176Q47.4697-40.4176 48.4734-41.4399Q49.4771-42.4623 49.4771-43.8322Q49.4771-45.2767 48.4734-46.2747Q47.4697-47.2726 46.0252-47.2726L13.2176-47.2726Q11.773-47.2726 10.7693-46.2747Q9.76562-45.2767 9.76562-43.8322Q9.76562-42.4623 10.7693-41.4399Q11.773-40.4176 13.2176-40.4176ZM13.2176-26.7111L46.0252-26.7111Q47.4697-26.7111 48.4734-27.7277Q49.4771-28.7443 49.4771-30.1257Q49.4771-31.5587 48.4734-32.5625Q47.4697-33.5662 46.0252-33.5662L13.2176-33.5662Q11.773-33.5662 10.7693-32.5625Q9.76562-31.5587 9.76562-30.1257Q9.76562-28.7443 10.7693-27.7277Q11.773-26.7111 13.2176-26.7111Z"/>
  </g>
  <g id="Bold-S" transform="matrix(1 0 0 1 2289.65 696)">
   <path d="M90.918-55.7373L90.918-70.0684Q90.918-72.2412 89.3677-73.4985Q87.8174-74.7559 85.7178-74.292L65.6738-69.9219Q60.791-68.8721 60.791-64.6729L60.791-22.4365Q60.9863-20.5078 59.3262-20.1904L53.1006-18.8965Q46.8262-17.5781 43.6768-14.3066Q40.5273-11.0352 40.5273-6.05469Q40.5273-0.976562 44.0063 2.20947Q47.4854 5.39551 52.9541 5.39551Q56.7627 5.39551 60.3516 3.49121Q63.9404 1.58691 66.2476-2.0874Q68.5547-5.76172 68.5547-11.0596L68.5547-46.3623Q68.5547-47.4365 68.6646-47.5952Q68.7744-47.7539 69.751-47.9736L87.8174-51.9531Q89.2334-52.2461 90.0757-53.2837Q90.918-54.3213 90.918-55.7373ZM13.0371-53.9062L46.167-53.9062Q47.5342-53.9062 48.4863-54.8828Q49.4385-55.8594 49.4385-57.1533Q49.4385-58.5205 48.4863-59.4727Q47.5342-60.4248 46.167-60.4248L13.0371-60.4248Q11.6699-60.4248 10.7178-59.4727Q9.76562-58.5205 9.76562-57.1533Q9.76562-55.8594 10.7178-54.8828Q11.6699-53.9062 13.0371-53.9062ZM13.0371-40.1855L46.167-40.1855Q47.5342-40.1855 48.4863-41.1499Q49.4385-42.1143 49.4385-43.4326Q49.4385-44.7998 48.4863-45.7397Q47.5342-46.6797 46.167-46.6797L13.0371-46.6797Q11.6699-46.6797 10.7178-45.7397Q9.76562-44.7998 9.76562-43.4326Q9.76562-42.1143 10.7178-41.1499Q11.6699-40.1855 13.0371-40.1855ZM13.0371-26.4404L46.167-26.4404Q47.5342-26.4404 48.4863-27.3926Q49.4385-28.3447 49.4385-29.6875Q49.4385-31.0303 48.4863-31.9824Q47.5342-32.9346 46.167-32.9346L13.0371-32.9346Q11.6699-32.9346 10.7178-31.9824Q9.76562-31.0303 9.76562-29.6875Q9.76562-28.3447 10.7178-27.3926Q11.6699-26.4404 13.0371-26.4404Z"/>
  </g>
  <g id="Semibold-S" transform="matrix(1 0 0 1 1993.33 696)">
   <path d="M90.1359-55.6929L90.1359-70.1217Q90.1359-72.0901 88.7412-73.2186Q87.3464-74.3471 85.4423-73.9276L65.3539-69.5486Q60.7732-68.561 60.7732-64.664L60.7732-22.161Q61.0396-19.9391 59.0773-19.5772L52.8962-18.2922Q46.7551-16.9916 43.7301-13.8356Q40.7051-10.6797 40.7051-5.89473Q40.7051-1.02988 44.0641 2.03618Q47.4231 5.10225 52.6786 5.10225Q56.1317 5.10225 59.6317 3.33125Q63.1317 1.56025 65.47-2.02075Q67.8082-5.60176 67.8082-11.0329L67.8082-46.3534Q67.8082-47.5698 68.0114-47.8307Q68.2146-48.0916 69.2978-48.3202L87.3464-52.3086Q88.6202-52.566 89.3781-53.4925Q90.1359-54.419 90.1359-55.6929ZM12.9127-53.7641L46.2647-53.7641Q47.5786-53.7641 48.4952-54.7051Q49.4118-55.6461 49.4118-56.8956Q49.4118-58.2095 48.4952-59.1261Q47.5786-60.0427 46.2647-60.0427L12.9127-60.0427Q11.5988-60.0427 10.6822-59.1261Q9.76562-58.2095 9.76562-56.8956Q9.76562-55.6461 10.6822-54.7051Q11.5988-53.7641 12.9127-53.7641ZM12.9127-40.0256L46.2647-40.0256Q47.5786-40.0256 48.4952-40.95Q49.4118-41.8743 49.4118-43.1571Q49.4118-44.471 48.4952-45.3709Q47.5786-46.2709 46.2647-46.2709L12.9127-46.2709Q11.5988-46.2709 10.6822-45.3709Q9.76562-44.471 9.76562-43.1571Q9.76562-41.8743 10.6822-40.95Q11.5988-40.0256 12.9127-40.0256ZM12.9127-26.2538L46.2647-26.2538Q47.5786-26.2538 48.4952-27.1615Q49.4118-28.0692 49.4118-29.3854Q49.4118-30.6659 48.4952-31.5825Q47.5786-32.4991 46.2647-32.4991L12.9127-32.4991Q11.5988-32.4991 10.6822-31.5825Q9.76562-30.6659 9.76562-29.3854Q9.76562-28.0692 10.6822-27.1615Q11.5988-26.2538 12.9127-26.2538Z"/>
  </g>
  <g id="Medium-S" transform="matrix(1 0 0 1 1696.92 696)">
   <path d="M89.543-55.6592L89.543-70.1621Q89.543-71.9756 88.2661-73.0063Q86.9893-74.0371 85.2334-73.6514L65.1113-69.2656Q60.7598-68.3252 60.7598-64.6572L60.7598-21.9521Q61.0801-19.5078 58.8887-19.1123L52.7412-17.834Q46.7012-16.5469 43.7705-13.4785Q40.8398-10.4102 40.8398-5.77344Q40.8398-1.07031 44.1079 1.90479Q47.376 4.87988 52.4697 4.87988Q55.6533 4.87988 59.0859 3.20996Q62.5186 1.54004 64.8804-1.97021Q67.2422-5.48047 67.2422-11.0127L67.2422-46.3467Q67.2422-47.6709 67.5161-48.0093Q67.79-48.3477 68.9541-48.583L86.9893-52.5781Q88.1553-52.8086 88.8491-53.6509Q89.543-54.4932 89.543-55.6592ZM12.8184-53.6562L46.3389-53.6562Q47.6123-53.6562 48.502-54.5703Q49.3916-55.4844 49.3916-56.7002Q49.3916-57.9736 48.502-58.8633Q47.6123-59.7529 46.3389-59.7529L12.8184-59.7529Q11.5449-59.7529 10.6553-58.8633Q9.76562-57.9736 9.76562-56.7002Q9.76562-55.4844 10.6553-54.5703Q11.5449-53.6562 12.8184-53.6562ZM12.8184-39.9043L46.3389-39.9043Q47.6123-39.9043 48.502-40.7983Q49.3916-41.6924 49.3916-42.9482Q49.3916-44.2217 48.502-45.0913Q47.6123-45.9609 46.3389-45.9609L12.8184-45.9609Q11.5449-45.9609 10.6553-45.0913Q9.76562-44.2217 9.76562-42.9482Q9.76562-41.6924 10.6553-40.7983Q11.5449-39.9043 12.8184-39.9043ZM12.8184-26.1123L46.3389-26.1123Q47.6123-26.1123 48.502-26.9863Q49.3916-27.8604 49.3916-29.1562Q49.3916-30.3896 48.502-31.2793Q47.6123-32.1689 46.3389-32.1689L12.8184-32.1689Q11.5449-32.1689 10.6553-31.2793Q9.76562-30.3896 9.76562-29.1562Q9.76562-27.8604 10.6553-26.9863Q11.5449-26.1123 12.8184-26.1123Z"/>
  </g>
  <g id="Regular-S" transform="matrix(1 0 0 1 1400.6 696)">
   <path d="M88.7695-55.6152L88.7695-70.2148Q88.7695-71.8262 87.6465-72.7295Q86.5234-73.6328 84.9609-73.291L64.7949-68.8965Q60.7422-68.0176 60.7422-64.6484L60.7422-21.6797Q61.1328-18.9453 58.6426-18.5059L52.5391-17.2363Q46.6309-15.9668 43.8232-13.0127Q41.0156-10.0586 41.0156-5.61523Q41.0156-1.12305 44.165 1.7334Q47.3145 4.58984 52.1973 4.58984Q55.0293 4.58984 58.374 3.05176Q61.7188 1.51367 64.1113-1.9043Q66.5039-5.32227 66.5039-10.9863L66.5039-46.3379Q66.5039-47.8027 66.8701-48.2422Q67.2363-48.6816 68.5059-48.9258L86.5234-52.9297Q87.5488-53.125 88.1592-53.8574Q88.7695-54.5898 88.7695-55.6152ZM12.6953-53.5156L46.4355-53.5156Q47.6562-53.5156 48.5107-54.3945Q49.3652-55.2734 49.3652-56.4453Q49.3652-57.666 48.5107-58.5205Q47.6562-59.375 46.4355-59.375L12.6953-59.375Q11.4746-59.375 10.6201-58.5205Q9.76562-57.666 9.76562-56.4453Q9.76562-55.2734 10.6201-54.3945Q11.4746-53.5156 12.6953-53.5156ZM12.6953-39.7461L46.4355-39.7461Q47.6562-39.7461 48.5107-40.6006Q49.3652-41.4551 49.3652-42.6758Q49.3652-43.8965 48.5107-44.7266Q47.6562-45.5566 46.4355-45.5566L12.6953-45.5566Q11.4746-45.5566 10.6201-44.7266Q9.76562-43.8965 9.76562-42.6758Q9.76562-41.4551 10.6201-40.6006Q11.4746-39.7461 12.6953-39.7461ZM12.6953-25.9277L46.4355-25.9277Q47.6562-25.9277 48.5107-26.7578Q49.3652-27.5879 49.3652-28.8574Q49.3652-30.0293 48.5107-30.8838Q47.6562-31.7383 46.4355-31.7383L12.6953-31.7383Q11.4746-31.7383 10.6201-30.8838Q9.76562-30.0293 9.76562-28.8574Q9.76562-27.5879 10.6201-26.7578Q11.4746-25.9277 12.6953-25.9277Z"/>
  </g>
  <g id="Light-S" transform="matrix(1 0 0 1 1104.78 696)">
   <path d="M86.9629-55.2083L86.9629-69.401Q86.9629-70.8496 85.9538-71.6634Q84.9447-72.4772 83.5449-72.168L64.2741-68.0013Q60.7585-67.2363 60.7585-64.2253L60.8398-21.9727Q61.1003-18.8965 58.3171-18.3919L52.2461-17.1224Q46.582-15.9017 43.8639-13.1022Q41.1458-10.3027 41.1458-6.02214Q41.1458-1.72526 44.1406 0.984701Q47.1354 3.69466 51.8066 3.69466Q54.5736 3.69466 57.7962 2.22168Q61.0189 0.748698 63.3138-2.55534Q65.6087-5.85938 65.6087-11.3444L65.6087-46.0449Q65.6087-47.64 66.0563-48.2015Q66.5039-48.763 67.9525-49.0397L84.9772-52.8158Q85.9049-53.0111 86.4339-53.6458Q86.9629-54.2806 86.9629-55.2083ZM12.0931-53.6133L46.6797-53.6133Q47.6562-53.6133 48.3236-54.2969Q48.9909-54.9805 48.9909-55.9082Q48.9909-56.8848 48.3236-57.5521Q47.6562-58.2194 46.6797-58.2194L12.0931-58.2194Q11.1003-58.2194 10.4329-57.5521Q9.76562-56.8848 9.76562-55.9082Q9.76562-54.9805 10.4329-54.2969Q11.1003-53.6133 12.0931-53.6133ZM12.0931-40.1855L46.6797-40.1855Q47.6562-40.1855 48.3236-40.861Q48.9909-41.5365 48.9909-42.4967Q48.9909-43.457 48.3236-44.1162Q47.6562-44.7754 46.6797-44.7754L12.0931-44.7754Q11.1003-44.7754 10.4329-44.1162Q9.76562-43.457 9.76562-42.4967Q9.76562-41.5365 10.4411-40.861Q11.1165-40.1855 12.0931-40.1855ZM12.0931-26.709L46.6797-26.709Q47.6562-26.709 48.3236-27.3682Q48.9909-28.0273 48.9909-29.0202Q48.9909-29.9479 48.3236-30.6234Q47.6562-31.2988 46.6797-31.2988L12.0931-31.2988Q11.1003-31.2988 10.4329-30.6234Q9.76562-29.9479 9.76562-29.0202Q9.76562-28.0273 10.4411-27.3682Q11.1165-26.709 12.0931-26.709Z"/>
  </g>
  <g id="Thin-S" transform="matrix(1 0 0 1 809.253 696)">
   <path d="M84.5735-54.6702L84.5735-68.3247Q84.5735-69.558 83.715-70.2534Q82.8566-70.9488 81.6721-70.6826L63.5852-66.8174Q60.78-66.2031 60.78-63.6656L60.969-22.3601Q61.0572-18.8319 57.8865-18.2412L51.8586-16.9717Q46.5175-15.8156 43.9177-13.2206Q41.318-10.6256 41.318-6.56029Q41.318-2.52174 44.1083-0.00551285Q46.8986 2.51071 51.29 2.51071Q53.9708 2.51071 57.032 1.12383Q60.0932-0.263042 62.259-3.41639Q64.4248-6.56975 64.4248-11.818L64.4248-45.6574Q64.4248-47.4247 64.98-48.1477Q65.5352-48.8707 67.2206-49.1904L82.9322-52.6651Q83.7308-52.8604 84.1521-53.366Q84.5735-53.8716 84.5735-54.6702ZM11.2966-53.7424L47.0026-53.7424Q47.6562-53.7424 48.076-54.1677Q48.4958-54.593 48.4958-55.1978Q48.4958-55.8515 48.076-56.2713Q47.6562-56.691 47.0026-56.691L11.2966-56.691Q10.6052-56.691 10.1854-56.2713Q9.76562-55.8515 9.76562-55.1978Q9.76562-54.593 10.1854-54.1677Q10.6052-53.7424 11.2966-53.7424ZM11.2966-40.7668L47.0026-40.7668Q47.6562-40.7668 48.076-41.2054Q48.4958-41.6441 48.4958-42.26Q48.4958-42.8758 48.076-43.309Q47.6562-43.7421 47.0026-43.7421L11.2966-43.7421Q10.6052-43.7421 10.1854-43.309Q9.76562-42.8758 9.76562-42.26Q9.76562-41.6441 10.2043-41.2054Q10.643-40.7668 11.2966-40.7668ZM11.2966-27.7423L47.0026-27.7423Q47.6562-27.7423 48.076-28.1754Q48.4958-28.6086 48.4958-29.2354Q48.4958-29.8403 48.076-30.279Q47.6562-30.7176 47.0026-30.7176L11.2966-30.7176Q10.6052-30.7176 10.1854-30.279Q9.76562-29.8403 9.76562-29.2354Q9.76562-28.6086 10.2043-28.1754Q10.643-27.7423 11.2966-27.7423Z"/>
  </g>
  <g id="Ultralight-S" transform="matrix(1 0 0 1 513.147 696)">
   <path d="M83.3496-54.3945L83.3496-67.7734Q83.3496-68.8965 82.5684-69.5312Q81.7871-70.166 80.7129-69.9219L63.2324-66.2109Q60.791-65.6738 60.791-63.3789L61.0352-22.5586Q61.0352-18.7988 57.666-18.1641L51.6602-16.8945Q46.4844-15.7715 43.9453-13.2812Q41.4062-10.791 41.4062-6.83594Q41.4062-2.92969 44.0918-0.512695Q46.7773 1.9043 51.0254 1.9043Q53.6621 1.9043 56.6406 0.561523Q59.6191-0.78125 61.7188-3.85742Q63.8184-6.93359 63.8184-12.0605L63.8184-45.459Q63.8184-47.3145 64.4287-48.1201Q65.0391-48.9258 66.8457-49.2676L81.8848-52.5879Q82.6172-52.7832 82.9834-53.2227Q83.3496-53.6621 83.3496-54.3945ZM10.8887-53.8086L47.168-53.8086Q47.6562-53.8086 47.9492-54.1016Q48.2422-54.3945 48.2422-54.834Q48.2422-55.3223 47.9492-55.6152Q47.6562-55.9082 47.168-55.9082L10.8887-55.9082Q10.3516-55.9082 10.0586-55.6152Q9.76562-55.3223 9.76562-54.834Q9.76562-54.3945 10.0586-54.1016Q10.3516-53.8086 10.8887-53.8086ZM10.8887-41.0645L47.168-41.0645Q47.6562-41.0645 47.9492-41.3818Q48.2422-41.6992 48.2422-42.1387Q48.2422-42.5781 47.9492-42.8955Q47.6562-43.2129 47.168-43.2129L10.8887-43.2129Q10.3516-43.2129 10.0586-42.8955Q9.76562-42.5781 9.76562-42.1387Q9.76562-41.6992 10.083-41.3818Q10.4004-41.0645 10.8887-41.0645ZM10.8887-28.2715L47.168-28.2715Q47.6562-28.2715 47.9492-28.5889Q48.2422-28.9062 48.2422-29.3457Q48.2422-29.7852 47.9492-30.1025Q47.6562-30.4199 47.168-30.4199L10.8887-30.4199Q10.3516-30.4199 10.0586-30.1025Q9.76562-29.7852 9.76562-29.3457Q9.76562-28.9062 10.083-28.5889Q10.4004-28.2715 10.8887-28.2715Z"/>
  </g>
 </g>
</svg>
