<?xml version="1.0" encoding="UTF-8"?>
<!--Generator: Apple Native CoreSVG 175.5-->
<!DOCTYPE svg
PUBLIC "-//W3C//DTD SVG 1.1//EN"
       "http://www.w3.org/Graphics/SVG/1.1/DTD/svg11.dtd">
<svg version="1.1" xmlns="http://www.w3.org/2000/svg" xmlns:xlink="http://www.w3.org/1999/xlink" width="3300" height="2200">
 <!--glyph: "uni100074.medium", point size: 100.0, font version: "18.0d9e1", template writer version: "84"-->
 <g id="Notes">
  <rect height="2200" id="artboard" style="fill:white;opacity:1" width="3300" x="0" y="0"/>
  <line style="fill:none;stroke:black;opacity:1;stroke-width:0.5;" x1="263" x2="3036" y1="292" y2="292"/>
  <text style="stroke:none;fill:black;font-family:sans-serif;font-size:13;font-weight:bold;" transform="matrix(1 0 0 1 263 322)">Weight/Scale Variations</text>
  <text style="stroke:none;fill:black;font-family:sans-serif;font-size:13;text-anchor:middle;" transform="matrix(1 0 0 1 559.711 322)">Ultralight</text>
  <text style="stroke:none;fill:black;font-family:sans-serif;font-size:13;text-anchor:middle;" transform="matrix(1 0 0 1 856.422 322)">Thin</text>
  <text style="stroke:none;fill:black;font-family:sans-serif;font-size:13;text-anchor:middle;" transform="matrix(1 0 0 1 1153.13 322)">Light</text>
  <text style="stroke:none;fill:black;font-family:sans-serif;font-size:13;text-anchor:middle;" transform="matrix(1 0 0 1 1449.84 322)">Regular</text>
  <text style="stroke:none;fill:black;font-family:sans-serif;font-size:13;text-anchor:middle;" transform="matrix(1 0 0 1 1746.56 322)">Medium</text>
  <text style="stroke:none;fill:black;font-family:sans-serif;font-size:13;text-anchor:middle;" transform="matrix(1 0 0 1 2043.27 322)">Semibold</text>
  <text style="stroke:none;fill:black;font-family:sans-serif;font-size:13;text-anchor:middle;" transform="matrix(1 0 0 1 2339.98 322)">Bold</text>
  <text style="stroke:none;fill:black;font-family:sans-serif;font-size:13;text-anchor:middle;" transform="matrix(1 0 0 1 2636.69 322)">Heavy</text>
  <text style="stroke:none;fill:black;font-family:sans-serif;font-size:13;text-anchor:middle;" transform="matrix(1 0 0 1 2933.4 322)">Black</text>
  <line style="fill:none;stroke:black;opacity:1;stroke-width:0.5;" x1="263" x2="3036" y1="1903" y2="1903"/>
  <g transform="matrix(1 0 0 1 263 1933)">
   <path d="M9.24805 0.830078Q10.8691 0.830078 12.2949 0.214844Q13.7207-0.400391 14.8096-1.49414Q15.8984-2.58789 16.5186-4.01367Q17.1387-5.43945 17.1387-7.05078Q17.1387-8.66211 16.5186-10.0879Q15.8984-11.5137 14.8047-12.6074Q13.7109-13.7012 12.2852-14.3164Q10.8594-14.9316 9.23828-14.9316Q7.62695-14.9316 6.20117-14.3164Q4.77539-13.7012 3.69141-12.6074Q2.60742-11.5137 1.9873-10.0879Q1.36719-8.66211 1.36719-7.05078Q1.36719-5.43945 1.9873-4.01367Q2.60742-2.58789 3.69629-1.49414Q4.78516-0.400391 6.21094 0.214844Q7.63672 0.830078 9.24805 0.830078ZM9.24805-0.654297Q7.91992-0.654297 6.7627-1.14746Q5.60547-1.64062 4.73145-2.51953Q3.85742-3.39844 3.36426-4.56055Q2.87109-5.72266 2.87109-7.05078Q2.87109-8.37891 3.35938-9.54102Q3.84766-10.7031 4.72168-11.582Q5.5957-12.4609 6.75293-12.9541Q7.91016-13.4473 9.23828-13.4473Q10.5762-13.4473 11.7383-12.9541Q12.9004-12.4609 13.7793-11.582Q14.6582-10.7031 15.1514-9.54102Q15.6445-8.37891 15.6445-7.05078Q15.6445-5.72266 15.1514-4.56055Q14.6582-3.39844 13.7793-2.51953Q12.9004-1.64062 11.7432-1.14746Q10.5859-0.654297 9.24805-0.654297ZM5.6543-7.05078Q5.6543-6.72852 5.85938-6.52832Q6.06445-6.32812 6.40625-6.32812L8.51562-6.32812L8.51562-4.20898Q8.51562-3.88672 8.71094-3.67676Q8.90625-3.4668 9.23828-3.4668Q9.56055-3.4668 9.77051-3.67676Q9.98047-3.88672 9.98047-4.20898L9.98047-6.32812L12.0898-6.32812Q12.4219-6.32812 12.627-6.52832Q12.832-6.72852 12.832-7.05078Q12.832-7.38281 12.627-7.58789Q12.4219-7.79297 12.0898-7.79297L9.98047-7.79297L9.98047-9.90234Q9.98047-10.2344 9.77051-10.4443Q9.56055-10.6543 9.23828-10.6543Q8.90625-10.6543 8.71094-10.4443Q8.51562-10.2344 8.51562-9.90234L8.51562-7.79297L6.40625-7.79297Q6.06445-7.79297 5.85938-7.58789Q5.6543-7.38281 5.6543-7.05078Z"/>
  </g>
  <g transform="matrix(1 0 0 1 281.867 1933)">
   <path d="M11.709 2.91016Q13.75 2.91016 15.5518 2.12891Q17.3535 1.34766 18.7305-0.0292969Q20.1074-1.40625 20.8887-3.20801Q21.6699-5.00977 21.6699-7.05078Q21.6699-9.0918 20.8887-10.8936Q20.1074-12.6953 18.7305-14.0723Q17.3535-15.4492 15.5469-16.2305Q13.7402-17.0117 11.6992-17.0117Q9.6582-17.0117 7.85645-16.2305Q6.05469-15.4492 4.68262-14.0723Q3.31055-12.6953 2.5293-10.8936Q1.74805-9.0918 1.74805-7.05078Q1.74805-5.00977 2.5293-3.20801Q3.31055-1.40625 4.6875-0.0292969Q6.06445 1.34766 7.86621 2.12891Q9.66797 2.91016 11.709 2.91016ZM11.709 1.25Q9.98047 1.25 8.47656 0.605469Q6.97266-0.0390625 5.83496-1.17676Q4.69727-2.31445 4.05762-3.81836Q3.41797-5.32227 3.41797-7.05078Q3.41797-8.7793 4.05762-10.2832Q4.69727-11.7871 5.83008-12.9297Q6.96289-14.0723 8.4668-14.7119Q9.9707-15.3516 11.6992-15.3516Q13.4277-15.3516 14.9365-14.7119Q16.4453-14.0723 17.583-12.9297Q18.7207-11.7871 19.3652-10.2832Q20.0098-8.7793 20.0098-7.05078Q20.0098-5.32227 19.3701-3.81836Q18.7305-2.31445 17.5879-1.17676Q16.4453-0.0390625 14.9414 0.605469Q13.4375 1.25 11.709 1.25ZM7.17773-7.05078Q7.17773-6.69922 7.41211-6.47461Q7.64648-6.25 8.01758-6.25L10.8887-6.25L10.8887-3.36914Q10.8887-2.99805 11.1133-2.76855Q11.3379-2.53906 11.6895-2.53906Q12.0605-2.53906 12.29-2.76855Q12.5195-2.99805 12.5195-3.36914L12.5195-6.25L15.4004-6.25Q15.7715-6.25 16.001-6.47461Q16.2305-6.69922 16.2305-7.05078Q16.2305-7.42188 16.001-7.65137Q15.7715-7.88086 15.4004-7.88086L12.5195-7.88086L12.5195-10.752Q12.5195-11.1328 12.29-11.3623Q12.0605-11.5918 11.6895-11.5918Q11.3379-11.5918 11.1133-11.3574Q10.8887-11.123 10.8887-10.752L10.8887-7.88086L8.01758-7.88086Q7.63672-7.88086 7.40723-7.65137Q7.17773-7.42188 7.17773-7.05078Z"/>
  </g>
  <g transform="matrix(1 0 0 1 305.646 1933)">
   <path d="M14.9707 5.66406Q17.0605 5.66406 18.96 5.01465Q20.8594 4.36523 22.4512 3.19336Q24.043 2.02148 25.2197 0.429688Q26.3965-1.16211 27.0459-3.06641Q27.6953-4.9707 27.6953-7.05078Q27.6953-9.14062 27.0459-11.04Q26.3965-12.9395 25.2197-14.5312Q24.043-16.123 22.4512-17.2998Q20.8594-18.4766 18.9551-19.126Q17.0508-19.7754 14.9609-19.7754Q12.8711-19.7754 10.9717-19.126Q9.07227-18.4766 7.48535-17.2998Q5.89844-16.123 4.72168-14.5312Q3.54492-12.9395 2.90039-11.04Q2.25586-9.14062 2.25586-7.05078Q2.25586-4.9707 2.90527-3.06641Q3.55469-1.16211 4.72656 0.429688Q5.89844 2.02148 7.49023 3.19336Q9.08203 4.36523 10.9814 5.01465Q12.8809 5.66406 14.9707 5.66406ZM14.9707 3.84766Q13.1641 3.84766 11.5283 3.2959Q9.89258 2.74414 8.53516 1.74805Q7.17773 0.751953 6.17676-0.610352Q5.17578-1.97266 4.62891-3.6084Q4.08203-5.24414 4.08203-7.05078Q4.08203-8.86719 4.62891-10.5029Q5.17578-12.1387 6.17188-13.501Q7.16797-14.8633 8.52539-15.8594Q9.88281-16.8555 11.5186-17.4023Q13.1543-17.9492 14.9609-17.9492Q16.7773-17.9492 18.4131-17.4023Q20.0488-16.8555 21.4111-15.8594Q22.7734-14.8633 23.7744-13.501Q24.7754-12.1387 25.3223-10.5029Q25.8691-8.86719 25.8691-7.05078Q25.8691-5.24414 25.3223-3.6084Q24.7754-1.97266 23.7793-0.610352Q22.7832 0.751953 21.4209 1.74805Q20.0586 2.74414 18.4229 3.2959Q16.7871 3.84766 14.9707 3.84766ZM9.19922-7.05078Q9.19922-6.66992 9.45801-6.4209Q9.7168-6.17188 10.1172-6.17188L14.0625-6.17188L14.0625-2.2168Q14.0625-1.81641 14.3115-1.55762Q14.5605-1.29883 14.9512-1.29883Q15.3516-1.29883 15.6104-1.55273Q15.8691-1.80664 15.8691-2.2168L15.8691-6.17188L19.8242-6.17188Q20.2246-6.17188 20.4785-6.4209Q20.7324-6.66992 20.7324-7.05078Q20.7324-7.46094 20.4785-7.71484Q20.2246-7.96875 19.8242-7.96875L15.8691-7.96875L15.8691-11.9141Q15.8691-12.3242 15.6104-12.583Q15.3516-12.8418 14.9512-12.8418Q14.5605-12.8418 14.3115-12.583Q14.0625-12.3242 14.0625-11.9141L14.0625-7.96875L10.1172-7.96875Q9.70703-7.96875 9.45312-7.71484Q9.19922-7.46094 9.19922-7.05078Z"/>
  </g>
  <text style="stroke:none;fill:black;font-family:sans-serif;font-size:13;font-weight:bold;" transform="matrix(1 0 0 1 263 1953)">Design Variations</text>
  <text style="stroke:none;fill:black;font-family:sans-serif;font-size:13;" transform="matrix(1 0 0 1 263 1971)">Symbols are supported in up to nine weights and three scales.</text>
  <text style="stroke:none;fill:black;font-family:sans-serif;font-size:13;" transform="matrix(1 0 0 1 263 1989)">For optimal layout with text and other symbols, vertically align</text>
  <text style="stroke:none;fill:black;font-family:sans-serif;font-size:13;" transform="matrix(1 0 0 1 263 2007)">symbols with the adjacent text.</text>
  <line style="fill:none;stroke:#00AEEF;stroke-width:0.5;opacity:1.0;" x1="776" x2="776" y1="1919" y2="1933"/>
  <g transform="matrix(1 0 0 1 776 1933)">
   <path d="M3.31055 0.15625Q3.70117 0.15625 3.91602-0.00976562Q4.13086-0.175781 4.26758-0.585938L5.52734-4.0332L11.2891-4.0332L12.5488-0.585938Q12.6855-0.175781 12.9004-0.00976562Q13.1152 0.15625 13.4961 0.15625Q13.8867 0.15625 14.1162-0.0585938Q14.3457-0.273438 14.3457-0.644531Q14.3457-0.869141 14.2383-1.17188L9.6582-13.3691Q9.48242-13.8184 9.17969-14.043Q8.87695-14.2676 8.4082-14.2676Q7.5-14.2676 7.17773-13.3789L2.59766-1.16211Q2.49023-0.859375 2.49023-0.634766Q2.49023-0.263672 2.70996-0.0537109Q2.92969 0.15625 3.31055 0.15625ZM6.00586-5.51758L8.37891-12.0898L8.42773-12.0898L10.8008-5.51758Z"/>
  </g>
  <line style="fill:none;stroke:#00AEEF;stroke-width:0.5;opacity:1.0;" x1="793.197" x2="793.197" y1="1919" y2="1933"/>
  <text style="stroke:none;fill:black;font-family:sans-serif;font-size:13;font-weight:bold;" transform="matrix(1 0 0 1 776 1953)">Margins</text>
  <text style="stroke:none;fill:black;font-family:sans-serif;font-size:13;" transform="matrix(1 0 0 1 776 1971)">Leading and trailing margins on the left and right side of each symbol</text>
  <text style="stroke:none;fill:black;font-family:sans-serif;font-size:13;" transform="matrix(1 0 0 1 776 1989)">can be adjusted by modifying the x-location of the margin guidelines.</text>
  <text style="stroke:none;fill:black;font-family:sans-serif;font-size:13;" transform="matrix(1 0 0 1 776 2007)">Modifications are automatically applied proportionally to all</text>
  <text style="stroke:none;fill:black;font-family:sans-serif;font-size:13;" transform="matrix(1 0 0 1 776 2025)">scales and weights.</text>
  <g transform="matrix(1 0 0 1 1289 1933)">
   <path d="M2.8418 1.86523L4.54102 3.57422Q5.18555 4.22852 5.90332 4.17969Q6.62109 4.13086 7.31445 3.35938L18.0078-8.42773L17.041-9.4043L6.42578 2.27539Q6.16211 2.57812 5.89355 2.61719Q5.625 2.65625 5.27344 2.30469L4.10156 1.14258Q3.75 0.791016 3.79395 0.522461Q3.83789 0.253906 4.14062-0.0195312L15.6152-10.8203L14.6387-11.7871L3.04688-0.898438Q2.30469-0.214844 2.25098 0.498047Q2.19727 1.21094 2.8418 1.86523ZM9.25781-16.3281Q8.94531-16.0254 8.90625-15.6348Q8.86719-15.2441 9.04297-14.9512Q9.21875-14.6777 9.55566-14.541Q9.89258-14.4043 10.3809-14.5215Q11.4746-14.7754 12.5977-14.7314Q13.7207-14.6875 14.7949-13.9844L14.209-12.5293Q13.9551-11.9043 14.0674-11.4404Q14.1797-10.9766 14.5801-10.5664L16.875-8.25195Q17.2363-7.88086 17.5781-7.82227Q17.9199-7.76367 18.3398-7.8418L19.4043-8.03711L20.0684-7.36328L20.0293-6.80664Q20-6.43555 20.1221-6.12305Q20.2441-5.81055 20.6055-5.44922L21.3672-4.70703Q21.7285-4.3457 22.1533-4.33105Q22.5781-4.31641 22.9297-4.66797L25.8398-7.58789Q26.1914-7.93945 26.1816-8.35449Q26.1719-8.76953 25.8105-9.13086L25.0391-9.89258Q24.6875-10.2539 24.3799-10.3857Q24.0723-10.5176 23.7109-10.4883L23.1348-10.4395L22.4902-11.0742L22.7344-12.1973Q22.832-12.6172 22.6953-12.9834Q22.5586-13.3496 22.1191-13.7891L19.9219-15.9766Q18.6719-17.2168 17.2607-17.8369Q15.8496-18.457 14.4189-18.4814Q12.9883-18.5059 11.665-17.959Q10.3418-17.4121 9.25781-16.3281ZM10.752-15.957Q11.6602-16.6211 12.7002-16.9043Q13.7402-17.1875 14.8047-17.085Q15.8691-16.9824 16.8701-16.5137Q17.8711-16.0449 18.7012-15.2051L21.1328-12.793Q21.3086-12.6172 21.3525-12.4512Q21.3965-12.2852 21.3379-12.0312L21.0156-10.5469L22.5195-9.0625L23.5059-9.12109Q23.6914-9.13086 23.7891-9.09668Q23.8867-9.0625 24.0332-8.91602L24.6094-8.33984L22.168-5.89844L21.5918-6.47461Q21.4453-6.62109 21.4062-6.71875Q21.3672-6.81641 21.377-7.01172L21.4453-7.98828L19.9512-9.47266L18.4277-9.21875Q18.1836-9.16992 18.042-9.2041Q17.9004-9.23828 17.7148-9.41406L15.7129-11.416Q15.5176-11.5918 15.4932-11.7529Q15.4688-11.9141 15.5859-12.1875L16.4648-14.2773Q15.293-15.3711 13.8281-15.791Q12.3633-16.2109 10.8398-15.7617Q10.7227-15.7324 10.6885-15.8057Q10.6543-15.8789 10.752-15.957Z"/>
  </g>
  <text style="stroke:none;fill:black;font-family:sans-serif;font-size:13;font-weight:bold;" transform="matrix(1 0 0 1 1289 1953)">Exporting</text>
  <text style="stroke:none;fill:black;font-family:sans-serif;font-size:13;" transform="matrix(1 0 0 1 1289 1971)">Symbols should be outlined when exporting to ensure the</text>
  <text style="stroke:none;fill:black;font-family:sans-serif;font-size:13;" transform="matrix(1 0 0 1 1289 1989)">design is preserved when submitting to Xcode.</text>
  <text id="template-version" style="stroke:none;fill:black;font-family:sans-serif;font-size:13;text-anchor:end;" transform="matrix(1 0 0 1 3036 1933)">Template v.2.0</text>
  <text style="stroke:none;fill:black;font-family:sans-serif;font-size:13;text-anchor:end;" transform="matrix(1 0 0 1 3036 1951)">Requires Xcode 12 or greater</text>
  <text id="descriptive-name" style="stroke:none;fill:black;font-family:sans-serif;font-size:13;text-anchor:end;" transform="matrix(1 0 0 1 3036 1969)">Generated from chevron.right.circle</text>
  <text style="stroke:none;fill:black;font-family:sans-serif;font-size:13;text-anchor:end;" transform="matrix(1 0 0 1 3036 1987)">Typeset at 100 points</text>
  <text style="stroke:none;fill:black;font-family:sans-serif;font-size:13;" transform="matrix(1 0 0 1 263 726)">Small</text>
  <text style="stroke:none;fill:black;font-family:sans-serif;font-size:13;" transform="matrix(1 0 0 1 263 1156)">Medium</text>
  <text style="stroke:none;fill:black;font-family:sans-serif;font-size:13;" transform="matrix(1 0 0 1 263 1586)">Large</text>
 </g>
 <g id="Guides">
  <g id="H-reference" style="fill:#27AAE1;stroke:none;" transform="matrix(1 0 0 1 339 696)">
   <path d="M0.993347 0L3.6377 0L29.3282-67.1326L30.0301-67.1326L30.0301-70.459L28.1227-70.459ZM11.6882-24.4797L46.9818-24.4797L46.2311-26.7288L12.4382-26.7288ZM55.1193 0L57.7637 0L30.6381-70.459L29.4327-70.459L29.4327-67.1326Z"/>
  </g>
  <line id="Baseline-S" style="fill:none;stroke:#27AAE1;opacity:1;stroke-width:0.5;" x1="263" x2="3036" y1="696" y2="696"/>
  <line id="Capline-S" style="fill:none;stroke:#27AAE1;opacity:1;stroke-width:0.5;" x1="263" x2="3036" y1="625.541" y2="625.541"/>
  <g id="H-reference" style="fill:#27AAE1;stroke:none;" transform="matrix(1 0 0 1 339 1126)">
   <path d="M0.993347 0L3.6377 0L29.3282-67.1326L30.0301-67.1326L30.0301-70.459L28.1227-70.459ZM11.6882-24.4797L46.9818-24.4797L46.2311-26.7288L12.4382-26.7288ZM55.1193 0L57.7637 0L30.6381-70.459L29.4327-70.459L29.4327-67.1326Z"/>
  </g>
  <line id="Baseline-M" style="fill:none;stroke:#27AAE1;opacity:1;stroke-width:0.5;" x1="263" x2="3036" y1="1126" y2="1126"/>
  <line id="Capline-M" style="fill:none;stroke:#27AAE1;opacity:1;stroke-width:0.5;" x1="263" x2="3036" y1="1055.54" y2="1055.54"/>
  <g id="H-reference" style="fill:#27AAE1;stroke:none;" transform="matrix(1 0 0 1 339 1556)">
   <path d="M0.993347 0L3.6377 0L29.3282-67.1326L30.0301-67.1326L30.0301-70.459L28.1227-70.459ZM11.6882-24.4797L46.9818-24.4797L46.2311-26.7288L12.4382-26.7288ZM55.1193 0L57.7637 0L30.6381-70.459L29.4327-70.459L29.4327-67.1326Z"/>
  </g>
  <line id="Baseline-L" style="fill:none;stroke:#27AAE1;opacity:1;stroke-width:0.5;" x1="263" x2="3036" y1="1556" y2="1556"/>
  <line id="Capline-L" style="fill:none;stroke:#27AAE1;opacity:1;stroke-width:0.5;" x1="263" x2="3036" y1="1485.54" y2="1485.54"/>
  <line id="left-margin" style="fill:none;stroke:#00AEEF;stroke-width:0.5;opacity:1.0;" x1="1391.32" x2="1391.32" y1="1030.79" y2="1150.12"/>
  <line id="right-margin" style="fill:none;stroke:#00AEEF;stroke-width:0.5;opacity:1.0;" x1="1508.37" x2="1508.37" y1="1030.79" y2="1150.12"/>
 </g>
 <g id="Symbols">
  <g id="Black-L" transform="matrix(1 0 0 1 2854.19 1556)">
   <path d="M79.1953 32.7252Q93.2356 32.7252 105.521 27.4303Q117.806 22.1354 127.174 12.7571Q136.542 3.37874 141.848-8.90649Q147.154-21.1917 147.154-35.2113Q147.154-49.2309 141.848-61.5161Q136.542-73.8013 127.164-83.1796Q117.785-92.558 105.5-97.8529Q93.2149-103.148 79.1746-103.148Q65.1563-103.148 52.8704-97.8529Q40.5846-92.558 31.2276-83.1796Q21.8707-73.8013 16.5647-61.5161Q11.2588-49.2309 11.2588-35.2113Q11.2588-21.1917 16.5647-8.90649Q21.8707 3.37874 31.238 12.7571Q40.6053 22.1354 52.8912 27.4303Q65.177 32.7252 79.1953 32.7252ZM79.1953 12.5777Q69.2941 12.5777 60.6256 8.86047Q51.9572 5.14327 45.4197-1.40458Q38.8822-7.95243 35.1644-16.6312Q31.4465-25.3101 31.4465-35.2113Q31.4465-45.1125 35.154-53.7913Q38.8615-62.4702 45.399-69.018Q51.9365-75.5659 60.6049-79.2831Q69.2734-83.0003 79.1746-83.0003Q89.0966-83.0003 97.776-79.2831Q106.455-75.5659 113.003-69.018Q119.551-62.4702 123.268-53.7913Q126.986-45.1125 126.986-35.2113Q126.986-25.3101 123.268-16.6312Q119.551-7.95243 113.003-1.40458Q106.455 5.14327 97.787 8.86047Q89.1186 12.5777 79.1953 12.5777ZM65.7735-4.61968Q67.5937-2.82016 70.7873-2.86945Q73.9808-2.91874 75.9412-4.74155L99.6634-26.9084Q103.134-30.1998 103.134-35.1821Q103.134-40.1645 99.6634-43.4182L75.9412-65.5072Q73.7642-67.6051 70.8755-67.596Q67.9869-67.5868 65.9694-65.6862Q63.6562-63.6285 63.6458-60.5433Q63.6354-57.4581 65.8125-55.3615L87.4971-35.1931L65.8125-14.9456Q63.6938-12.9074 63.5777-9.9202Q63.4615-6.93296 65.7735-4.61968Z"/>
  </g>
  <g id="Heavy-L" transform="matrix(1 0 0 1 2558.42 1556)">
   <path d="M78.2511 31.7672Q92.088 31.7672 104.202 26.5464Q116.316 21.3256 125.559 12.0677Q134.802 2.8099 140.04-9.30402Q145.279-21.4179 145.279-35.2251Q145.279-49.0322 140.04-61.1461Q134.802-73.2601 125.544-82.5179Q116.286-91.7758 104.172-96.9966Q92.0582-102.217 78.2213-102.217Q64.4202-102.217 52.3033-96.9966Q40.1863-91.7758 30.9613-82.5179Q21.7362-73.2601 16.4975-61.1461Q11.2588-49.0322 11.2588-35.2251Q11.2588-21.4179 16.4975-9.30402Q21.7362 2.8099 30.9761 12.0677Q40.2161 21.3256 52.333 26.5464Q64.45 31.7672 78.2511 31.7672ZM78.2511 14.0252Q68.0447 14.0252 59.1149 10.2016Q50.1851 6.37791 43.4463-0.375708Q36.7076-7.12933 32.8809-16.074Q29.0543-25.0188 29.0543-35.2251Q29.0543-45.4314 32.8661-54.3761Q36.6778-63.3208 43.4166-70.0745Q50.1553-76.8281 59.0851-80.6517Q68.015-84.4754 78.2213-84.4754Q88.4574-84.4754 97.4051-80.6517Q106.353-76.8281 113.106-70.0745Q119.86-63.3208 123.684-54.3761Q127.507-45.4314 127.507-35.2251Q127.507-25.0188 123.684-16.074Q119.86-7.12933 113.106-0.375708Q106.353 6.37791 97.423 10.2016Q88.4932 14.0252 78.2511 14.0252ZM64.6576-4.50176Q66.3153-2.87379 69.214-2.92285Q72.1127-2.9719 73.9015-4.6417L98.2918-27.5109Q101.524-30.5646 101.524-35.1895Q101.524-39.8144 98.2918-42.8533L73.9015-65.6541Q71.9193-67.5619 69.284-67.5663Q66.6486-67.5707 64.8212-65.8326Q62.726-63.9517 62.7111-61.1497Q62.6963-58.3477 64.6785-56.4459L87.4172-35.2074L64.6785-13.8945Q62.7409-12.0373 62.6547-9.31713Q62.5684-6.59693 64.6576-4.50176Z"/>
  </g>
  <g id="Bold-L" transform="matrix(1 0 0 1 2262.89 1556)">
   <path d="M77.0653 30.566Q90.6516 30.566 102.549 25.4396Q114.447 20.3133 123.533 11.2089Q132.619 2.10448 137.771-9.79333Q142.923-21.6912 142.923-35.2405Q142.923-48.7898 137.771-60.6877Q132.619-72.5855 123.515-81.6899Q114.41-90.7942 102.512-95.9206Q90.6146-101.047 77.0283-101.047Q63.4932-101.047 51.5882-95.9206Q39.6833-90.7942 30.623-81.6899Q21.5627-72.5855 16.4108-60.6877Q11.2588-48.7898 11.2588-35.2405Q11.2588-21.6912 16.4108-9.79333Q21.5627 2.10448 30.6415 11.2089Q39.7203 20.3133 51.6252 25.4396Q63.5301 30.566 77.0653 30.566ZM77.0653 15.8201Q66.4831 15.8201 57.2278 11.8629Q47.9725 7.90583 40.9827 0.897553Q33.9929-6.11072 30.0287-15.3845Q26.0645-24.6583 26.0645-35.2405Q26.0645-45.8227 30.0102-55.0965Q33.9559-64.3703 40.9457-71.3786Q47.9355-78.3868 57.1908-82.3439Q66.4461-86.3011 77.0283-86.3011Q87.6474-86.3011 96.9283-82.3439Q106.209-78.3868 113.218-71.3786Q120.226-64.3703 124.183-55.0965Q128.14-45.8227 128.14-35.2405Q128.14-24.6583 124.183-15.3845Q120.226-6.11072 113.218 0.897553Q106.209 7.90583 96.954 11.8629Q87.6986 15.8201 77.0653 15.8201ZM63.3344-4.39863Q64.7787-2.99135 67.29-3.03582Q69.8013-3.0803 71.3695-4.55303L96.628-28.3661Q99.5249-31.0937 99.5249-35.2064Q99.5249-39.319 96.628-42.0544L71.3695-65.8155Q69.6397-67.479 67.3409-67.4943Q65.0421-67.5096 63.459-65.9849Q61.6481-64.342 61.6296-61.9115Q61.6111-59.481 63.3409-57.8317L87.3796-35.232L63.3409-12.5661Q61.6403-10.946 61.589-8.57774Q61.5378-6.20952 63.3344-4.39863Z"/>
  </g>
  <g id="Semibold-L" transform="matrix(1 0 0 1 1966.99 1556)">
   <path d="M76.2478 29.7379Q89.6614 29.7379 101.41 24.6766Q113.159 19.6153 122.137 10.6168Q131.114 1.61818 136.206-10.1307Q141.299-21.8795 141.299-35.2511Q141.299-48.6228 136.206-60.3716Q131.114-72.1204 122.116-81.119Q113.117-90.1176 101.368-95.1789Q89.6194-100.24 76.2058-100.24Q62.854-100.24 51.0953-95.1789Q39.3365-90.1176 30.3898-81.119Q21.4432-72.1204 16.351-60.3716Q11.2588-48.6228 11.2588-35.2511Q11.2588-21.8795 16.351-10.1307Q21.4432 1.61818 30.4108 10.6168Q39.3785 19.6153 51.1372 24.6766Q62.896 29.7379 76.2478 29.7379ZM76.2478 17.0574Q65.4065 17.0574 55.9268 13.0083Q46.4471 8.95916 39.2843 1.77533Q32.1214-5.4085 28.0624-14.9092Q24.0033-24.4099 24.0033-35.2511Q24.0033-46.0924 28.0414-55.5931Q32.0795-65.0938 39.2423-72.2776Q46.4052-79.4614 55.8848-83.5105Q65.3645-87.5597 76.2058-87.5597Q87.089-87.5597 96.5997-83.5105Q106.11-79.4614 113.294-72.2776Q120.478-65.0938 124.527-55.5931Q128.576-46.0924 128.576-35.2511Q128.576-24.4099 124.527-14.9092Q120.478-5.4085 113.294 1.77533Q106.11 8.95916 96.6306 13.0083Q87.1509 17.0574 76.2478 17.0574ZM62.4222-4.32754Q63.7194-3.07239 65.9636-3.11371Q68.2079-3.15504 69.6239-4.49191L95.481-28.9557Q98.1467-31.4584 98.1467-35.218Q98.1467-38.9776 95.481-41.5037L69.6239-65.9268Q68.0682-67.4219 66.0014-67.4446Q63.9346-67.4674 62.5199-66.0898Q60.905-64.6111 60.884-62.4367Q60.8631-60.2622 62.4187-58.787L87.3537-35.2489L62.4187-11.6502Q60.8816-10.1936 60.8544-8.06801Q60.8272-5.94245 62.4222-4.32754Z"/>
  </g>
  <g id="Medium-L" transform="matrix(1 0 0 1 1670.9 1556)">
   <path d="M75.6279 29.11Q88.9106 29.11 100.546 24.0981Q112.182 19.0862 121.078 10.1678Q129.973 1.24944 135.02-10.3864Q140.067-22.0223 140.067-35.2592Q140.067-48.4961 135.02-60.1319Q129.973-71.7678 121.055-80.6862Q112.137-89.6045 100.501-94.6164Q88.8648-99.6283 75.5822-99.6283Q62.3695-99.6283 50.7215-94.6164Q39.0736-89.6045 30.213-80.6862Q21.3525-71.7678 16.3056-60.1319Q11.2588-48.4961 11.2588-35.2592Q11.2588-22.0223 16.3056-10.3864Q21.3525 1.24944 30.2359 10.1678Q39.1193 19.0862 50.7673 24.0981Q62.4152 29.11 75.6279 29.11ZM75.6279 17.9956Q64.5902 17.9956 54.9404 13.8767Q45.2905 9.75784 37.9965 2.4409Q30.7024-4.87605 26.5714-14.5488Q22.4405-24.2215 22.4405-35.2592Q22.4405-46.2969 26.5486-55.9696Q30.6567-65.6423 37.9507-72.9593Q45.2448-80.2762 54.8946-84.3951Q64.5445-88.514 75.5822-88.514Q86.6657-88.514 96.3504-84.3951Q106.035-80.2762 113.352-72.9593Q120.669-65.6423 124.788-55.9696Q128.907-46.2969 128.907-35.2592Q128.907-24.2215 124.788-14.5488Q120.669-4.87605 113.352 2.4409Q106.035 9.75784 96.3854 13.8767Q86.7356 17.9956 75.6279 17.9956ZM61.7306-4.27363Q62.9162-3.13384 64.9579-3.17277Q66.9996-3.2117 68.3003-4.44556L94.6113-29.4027Q97.1017-31.7349 97.1017-35.2268Q97.1017-38.7187 94.6113-41.0861L68.3003-66.0112Q66.8766-67.3786 64.9857-67.407Q63.0949-67.4354 61.8079-66.1694Q60.3416-64.8151 60.3187-62.8349Q60.2958-60.8546 61.7195-59.5114L87.334-35.2617L61.7195-10.9558Q60.3063-9.6231 60.2974-7.68152Q60.2885-5.73994 61.7306-4.27363Z"/>
  </g>
  <g id="Regular-L" transform="matrix(1 0 0 1 1374.99 1556)">
   <path d="M74.8194 28.2909Q87.9312 28.2909 99.4198 23.3434Q110.908 18.3959 119.697 9.58221Q128.485 0.768476 133.473-10.7201Q138.46-22.2086 138.46-35.2697Q138.46-48.3308 133.473-59.8193Q128.485-71.3079 119.671-80.1216Q110.858-88.9353 99.3691-93.8828Q87.8805-98.8303 74.7687-98.8303Q61.7374-98.8303 50.234-93.8828Q38.7306-88.9353 29.9824-80.1216Q21.2342-71.3079 16.2465-59.8193Q11.2588-48.3308 11.2588-35.2697Q11.2588-22.2086 16.2465-10.7201Q21.2342 0.768476 30.0077 9.58221Q38.7813 18.3959 50.2847 23.3434Q61.7881 28.2909 74.8194 28.2909ZM74.8194 19.2194Q63.5255 19.2194 53.6537 15.0095Q43.7819 10.7996 36.3167 3.30903Q28.8515-4.18154 24.6267-14.0786Q20.402-23.9757 20.402-35.2697Q20.402-46.5637 24.6014-56.4608Q28.8008-66.3579 36.266-73.8484Q43.7313-81.339 53.603-85.5489Q63.4748-89.7588 74.7687-89.7588Q86.1134-89.7588 96.0254-85.5489Q105.937-81.339 113.428-73.8484Q120.918-66.3579 125.128-56.4608Q129.338-46.5637 129.338-35.2697Q129.338-23.9757 125.128-14.0786Q120.918-4.18154 113.428 3.30903Q105.937 10.7996 96.0656 15.0095Q86.1938 19.2194 74.8194 19.2194ZM60.8285-4.20332Q61.8685-3.21399 63.6461-3.2498Q65.4237-3.28561 66.5739-4.3851L93.4769-29.9859Q95.7387-32.0956 95.7387-35.2383Q95.7387-38.3809 93.4769-40.5414L66.5739-66.1212Q65.3223-67.3221 63.661-67.3579Q61.9996-67.3937 60.8791-66.2733Q59.6067-65.0812 59.5813-63.3543Q59.556-61.6273 60.8075-60.4562L87.3084-35.2785L60.8075-10.0501Q59.556-8.87898 59.5708-7.17739Q59.5857-5.4758 60.8285-4.20332Z"/>
  </g>
  <g id="Light-L" transform="matrix(1 0 0 1 1079.2 1556)">
   <path d="M73.8959 27.3674Q86.8436 27.3674 98.1577 22.502Q109.472 17.6366 118.137 8.95629Q126.802 0.275949 131.708-11.0381Q136.614-22.3522 136.614-35.2697Q136.614-48.1872 131.708-59.5013Q126.802-70.8154 118.122-79.4957Q109.442-88.176 98.1275-93.0414Q86.8134-97.9069 73.8658-97.9069Q60.9986-97.9069 49.6594-93.0414Q38.3201-88.176 29.6951-79.4957Q21.07-70.8154 16.1644-59.5013Q11.2588-48.1872 11.2588-35.2697Q11.2588-22.3522 16.1644-11.0381Q21.07 0.275949 29.7102 8.95629Q38.3503 17.6366 49.6895 22.502Q61.0287 27.3674 73.8959 27.3674ZM73.8959 20.4712Q62.3557 20.4712 52.2479 16.1587Q42.1402 11.8462 34.4903 4.18122Q26.8403-3.48379 22.5027-13.6066Q18.1651-23.7295 18.1651-35.2697Q18.1651-46.8099 22.4876-56.9328Q26.8102-67.0556 34.4601-74.7206Q42.11-82.3856 52.2178-86.6981Q62.3255-91.0106 73.8658-91.0106Q85.4362-91.0106 95.5841-86.6981Q105.732-82.3856 113.397-74.7206Q121.062-67.0556 125.375-56.9328Q129.687-46.8099 129.687-35.2697Q129.687-23.7295 125.375-13.6066Q121.062-3.48379 113.397 4.18122Q105.732 11.8462 95.6244 16.1587Q85.5166 20.4712 73.8959 20.4712ZM60.2949-4.40854Q61.1092-3.62442 62.4763-3.62945Q63.8435-3.63448 64.7885-4.54928L92.5534-31.2787Q94.3226-32.9575 94.3226-35.2999Q94.3226-37.6422 92.5534-39.3511L64.7885-66.1007Q63.7832-67.0758 62.5015-67.0808Q61.2197-67.0859 60.325-66.1912Q59.3399-65.2864 59.3248-63.9494Q59.3097-62.6124 60.315-61.6875L87.6778-35.3401L60.315-8.96244Q59.3097-8.03758 59.3348-6.71565Q59.36-5.39371 60.2949-4.40854Z"/>
  </g>
  <g id="Thin-L" transform="matrix(1 0 0 1 783.716 1556)">
   <path d="M72.6746 26.1461Q85.405 26.1461 96.4884 21.3892Q107.572 16.6324 116.074 8.12846Q124.577-0.375458 129.374-11.4588Q134.171-22.5422 134.171-35.2697Q134.171-47.9972 129.374-59.0806Q124.577-70.1639 116.073-78.6679Q107.569-87.1718 96.4854-91.9286Q85.402-96.6855 72.6715-96.6855Q60.0215-96.6855 48.8994-91.9286Q37.7773-87.1718 29.3151-78.6679Q20.8529-70.1639 16.0558-59.0806Q11.2588-47.9972 11.2588-35.2697Q11.2588-22.5422 16.0558-11.4588Q20.8529-0.375458 29.3166 8.12846Q37.7803 16.6324 48.9024 21.3892Q60.0245 26.1461 72.6746 26.1461ZM72.6746 22.1269Q60.8086 22.1269 50.3887 17.6787Q39.9688 13.2305 32.0746 5.33475Q24.1804-2.56097 19.6935-12.9824Q15.2066-23.4038 15.2066-35.2697Q15.2066-47.1356 19.692-57.557Q24.1774-67.9784 32.0716-75.8742Q39.9658-83.7699 50.3857-88.2181Q60.8056-92.6663 72.6715-92.6663Q84.5405-92.6663 95.0006-88.2181Q105.461-83.7699 113.356-75.8742Q121.252-67.9784 125.7-57.557Q130.149-47.1356 130.149-35.2697Q130.149-23.4038 125.7-12.9824Q121.252-2.56097 113.356 5.33475Q105.461 13.2305 95.0408 17.6787Q84.6209 22.1269 72.6746 22.1269ZM59.5892-4.67996Q60.1049-4.16726 60.9292-4.13158Q61.7536-4.0959 62.4271-4.76641L91.332-32.9887Q92.4499-34.0975 92.4499-35.3813Q92.4499-36.665 91.332-37.7769L62.4271-66.0735Q61.7475-66.7501 60.9679-66.7144Q60.1883-66.6787 59.5922-66.0826Q58.987-65.5578 58.9855-64.7365Q58.984-63.9152 59.6636-63.316L88.1663-35.4215L59.6636-7.52391Q58.984-6.92476 59.0227-6.10495Q59.0614-5.28514 59.5892-4.67996Z"/>
  </g>
  <g id="Ultralight-L" transform="matrix(1 0 0 1 487.631 1556)">
   <path d="M72.049 25.5205Q84.6682 25.5205 95.6335 20.8192Q106.599 16.118 115.018 7.70445Q123.437-0.709105 128.178-11.6743Q132.92-22.6395 132.92-35.2697Q132.92-47.8999 128.178-58.8651Q123.437-69.8303 115.023-78.2439Q106.61-86.6574 95.6443-91.3586Q84.6791-96.0599 72.0598-96.0599Q59.521-96.0599 48.5101-91.3586Q37.4993-86.6574 29.1205-78.2439Q20.7417-69.8303 16.0002-58.8651Q11.2588-47.8999 11.2588-35.2697Q11.2588-22.6395 16.0002-11.6743Q20.7417-0.709105 29.115 7.70445Q37.4884 16.118 48.4992 20.8192Q59.5101 25.5205 72.049 25.5205ZM72.049 22.9749Q60.0162 22.9749 49.4364 18.4572Q38.8567 13.9395 30.8374 5.92558Q22.818-2.0883 18.2546-12.6626Q13.6913-23.2369 13.6913-35.2697Q13.6913-47.3025 18.2601-57.8768Q22.8289-68.4511 30.8482-76.465Q38.8676-84.4789 49.4473-88.9966Q60.0271-93.5143 72.0598-93.5143Q84.0817-93.5143 94.7017-88.9966Q105.322-84.4789 113.336-76.465Q121.349-68.4511 125.867-57.8768Q130.385-47.3025 130.385-35.2697Q130.385-23.2369 125.867-12.6626Q121.349-2.0883 113.336 5.92558Q105.322 13.9395 94.7419 18.4572Q84.1621 22.9749 72.049 22.9749ZM59.2277-4.81898Q59.5905-4.4453 60.1368-4.38877Q60.6831-4.33223 61.2176-4.87763L90.7064-33.8645Q91.4906-34.6814 91.4906-35.423Q91.4906-36.1646 90.7064-36.9706L61.2176-66.0596Q60.7049-66.5833 60.1825-66.5267Q59.6601-66.4702 59.2169-66.027Q58.8063-65.6969 58.8117-65.1397Q58.8172-64.5825 59.3299-64.1502L88.4166-35.4632L59.3299-6.78711Q58.8172-6.35478 58.8628-5.79216Q58.9085-5.22953 59.2277-4.81898Z"/>
  </g>
  <g id="Black-M" transform="matrix(1 0 0 1 2871.36 1126)">
   <path d="M62.0423 18.1161Q73.0725 18.1161 82.714 13.9613Q92.3555 9.80654 99.704 2.45531Q107.052-4.89592 111.21-14.5374Q115.367-24.1789 115.367-35.2035Q115.367-46.2282 111.21-55.8697Q107.052-65.5112 99.7012-72.8624Q92.35-80.2136 82.7085-84.3684Q73.067-88.5232 62.0368-88.5232Q51.0119-88.5232 41.3705-84.3684Q31.7292-80.2136 24.3833-72.8624Q17.0375-65.5112 12.8801-55.8697Q8.72266-46.2282 8.72266-35.2035Q8.72266-24.1789 12.8801-14.5374Q17.0375-4.89592 24.3861 2.45531Q31.7347 9.80654 41.376 13.9613Q51.0174 18.1161 62.0423 18.1161ZM62.0423 0.734266Q54.6003 0.734266 48.0771-2.06802Q41.554-4.87031 36.637-9.78999Q31.7201-14.7097 28.918-21.2356Q26.1159-27.7615 26.1159-35.2035Q26.1159-42.6456 28.9152-49.1715Q31.7146-55.6974 36.6315-60.6171Q41.5485-65.5368 48.0716-68.3391Q54.5948-71.1414 62.0368-71.1414Q69.4844-71.1414 76.0102-68.3391Q82.5359-65.5368 87.4556-60.6171Q92.3753-55.6974 95.1776-49.1715Q97.9799-42.6456 97.9799-35.2035Q97.9799-27.7615 95.1776-21.2356Q92.3753-14.7097 87.4556-9.78999Q82.5359-4.87031 76.0128-2.06802Q69.4896 0.734266 62.0423 0.734266ZM51.8442-11.6439Q53.3635-10.1301 56.0355-10.1644Q58.7075-10.1986 60.3459-11.7173L78.267-28.4402Q81.0935-31.1359 81.0935-35.1948Q81.0935-39.2537 78.267-41.8978L60.3459-58.5579Q58.5252-60.316 56.121-60.2931Q53.7168-60.2702 52.021-58.6886Q50.0803-56.9815 50.0776-54.4007Q50.0748-51.8199 51.8955-50.0615L67.9064-35.1974L51.8955-20.2708Q50.1319-18.5695 50.0176-16.0771Q49.9032-13.5846 51.8442-11.6439Z"/>
  </g>
  <g id="Heavy-M" transform="matrix(1 0 0 1 2575.48 1126)">
   <path d="M61.2045 17.2648Q72.0509 17.2648 81.541 13.1749Q91.0312 9.08498 98.2688 1.83921Q105.506-5.40657 109.606-14.8967Q113.705-24.3868 113.705-35.217Q113.705-46.0473 109.606-55.5374Q105.506-65.0275 98.2607-72.2733Q91.0149-79.519 81.5248-83.6089Q72.0347-87.6988 61.1882-87.6988Q50.3604-87.6988 40.8691-83.6089Q31.3778-79.519 24.1495-72.2733Q16.9211-65.0275 12.8219-55.5374Q8.72266-46.0473 8.72266-35.217Q8.72266-24.3868 12.8219-14.8967Q16.9211-5.40657 24.1576 1.83921Q31.394 9.08498 40.8853 13.1749Q50.3767 17.2648 61.2045 17.2648ZM61.2045 2.03385Q53.4869 2.03385 46.73-0.86303Q39.9731-3.75991 34.8765-8.86466Q29.7798-13.9694 26.8817-20.7344Q23.9836-27.4994 23.9836-35.217Q23.9836-42.9346 26.8736-49.6996Q29.7636-56.4646 34.8602-61.5694Q39.9568-66.6741 46.7137-69.571Q53.4706-72.4679 61.1882-72.4679Q68.922-72.4679 75.6883-69.571Q82.4545-66.6741 87.5593-61.5694Q92.664-56.4646 95.5609-49.6996Q98.4578-42.9346 98.4578-35.217Q98.4578-27.4994 95.5609-20.7344Q92.664-13.9694 87.5593-8.86466Q82.4545-3.75991 75.6976-0.86303Q68.9407 2.03385 61.2045 2.03385ZM50.8026-11.5097Q52.1838-10.1447 54.6054-10.1815Q57.027-10.2184 58.5167-11.6045L77.0114-28.9099Q79.6506-31.4131 79.6506-35.1963Q79.6506-38.9796 77.0114-41.4554L58.5167-58.7034Q56.8637-60.2965 54.6721-60.2897Q52.4805-60.2829 50.9497-58.8393Q49.1957-57.2785 49.1876-54.9385Q49.1794-52.5986 50.8324-51.008L67.7942-35.2057L50.8324-19.3435Q49.2231-17.7965 49.137-15.5301Q49.051-13.2637 50.8026-11.5097Z"/>
  </g>
  <g id="Bold-M" transform="matrix(1 0 0 1 2279.69 1126)">
   <path d="M60.2672 16.3124Q70.9082 16.3124 80.2289 12.2951Q89.5497 8.27781 96.6634 1.15Q103.777-5.9778 107.811-15.2986Q111.845-24.6193 111.845-35.2321Q111.845-45.8449 107.811-55.1656Q103.777-64.4864 96.6493-71.6142Q89.5215-78.742 80.2007-82.7593Q70.8799-86.7766 60.2389-86.7766Q49.6317-86.7766 40.3082-82.7593Q30.9846-78.742 23.8878-71.6142Q16.791-64.4864 12.7568-55.1656Q8.72266-45.8449 8.72266-35.2321Q8.72266-24.6193 12.7568-15.2986Q16.791-5.9778 23.902 1.15Q31.0129 8.27781 40.3364 12.2951Q49.6599 16.3124 60.2672 16.3124ZM60.2672 3.48763Q52.2414 3.48763 45.223 0.484927Q38.2046-2.51777 32.907-7.82954Q27.6093-13.1413 24.6039-20.1738Q21.5984-27.2063 21.5984-35.2321Q21.5984-43.2579 24.5897-50.2904Q27.5811-57.3229 32.8787-62.6347Q38.1764-67.9464 45.1948-70.9491Q52.2131-73.9518 60.2389-73.9518Q68.293-73.9518 75.3282-70.9491Q82.3635-67.9464 87.6752-62.6347Q92.987-57.3229 95.9897-50.2904Q98.9924-43.2579 98.9924-35.2321Q98.9924-27.2063 95.9897-20.1738Q92.987-13.1413 87.6752-7.82954Q82.3635-2.51777 75.3451 0.484927Q68.3267 3.48763 60.2672 3.48763ZM49.6373-11.3596Q50.8642-10.161 53.0057-10.2007Q55.1472-10.2405 56.4704-11.4784L75.6069-29.4353Q78.0366-31.7232 78.0366-35.198Q78.0366-38.6729 75.6069-40.9605L56.4704-58.8661Q55.0051-60.2746 53.0513-60.2858Q51.0974-60.297 49.7512-59.0079Q48.2061-57.6107 48.1919-55.5402Q48.1778-53.4698 49.6432-52.0667L67.6687-35.2149L49.6432-18.3063Q48.2064-16.9318 48.152-14.9183Q48.0977-12.9047 49.6373-11.3596Z"/>
  </g>
  <g id="Semibold-M" transform="matrix(1 0 0 1 1983.62 1126)">
   <path d="M59.621 15.6559Q70.1203 15.6559 79.3244 11.6886Q88.5284 7.72135 95.5566 0.674869Q102.585-6.37161 106.574-15.5756Q110.564-24.7797 110.564-35.2425Q110.564-45.7053 106.574-54.9093Q102.585-64.1134 95.5384-71.1598Q88.4919-78.2063 79.2879-82.1736Q70.0838-86.1408 59.5845-86.1408Q49.1293-86.1408 39.9215-82.1736Q30.7136-78.2063 23.7075-71.1598Q16.7013-64.1134 12.712-54.9093Q8.72266-45.7053 8.72266-35.2425Q8.72266-24.7797 12.712-15.5756Q16.7013-6.37161 23.7257 0.674869Q30.7501 7.72135 39.958 11.6886Q49.1658 15.6559 59.621 15.6559ZM59.621 4.48985Q51.3827 4.48985 44.1841 1.4142Q36.9855-1.66145 31.5492-7.11594Q26.113-12.5704 23.0335-19.7873Q19.954-27.0042 19.954-35.2425Q19.954-43.4808 23.0153-50.6977Q26.0765-57.9145 31.5127-63.369Q36.9489-68.8235 44.1476-71.8992Q51.3462-74.9748 59.5845-74.9748Q67.8593-74.9748 75.08-71.8992Q82.3007-68.8235 87.7552-63.369Q93.2097-57.9145 96.2853-50.6977Q99.361-43.4808 99.361-35.2425Q99.361-27.0042 96.2853-19.7873Q93.2097-12.5704 87.7552-7.11594Q82.3007-1.66145 75.1021 1.4142Q67.9035 4.48985 59.621 4.48985ZM48.834-11.2561Q49.9544-10.1722 51.9028-10.214Q53.8513-10.2558 55.0598-11.3914L74.6386-29.7974Q76.9239-31.9369 76.9239-35.1992Q76.9239-38.4615 74.6386-40.6193L55.0598-58.9783Q53.7238-60.2596 51.9339-60.2832Q50.144-60.3068 48.925-59.1241Q47.5238-57.8397 47.5056-55.955Q47.4873-54.0703 48.8233-52.7967L67.5822-35.2213L48.8233-17.5912Q47.5055-16.3357 47.473-14.4965Q47.4405-12.6573 48.834-11.2561Z"/>
  </g>
  <g id="Medium-M" transform="matrix(1 0 0 1 1687.4 1126)">
   <path d="M59.1311 15.158Q69.523 15.158 78.6385 11.2287Q87.754 7.29942 94.7174 0.314603Q101.681-6.67021 105.636-15.7857Q109.591-24.9012 109.591-35.2504Q109.591-45.5995 105.636-54.715Q101.681-63.8305 94.696-70.8153Q87.7112-77.8002 78.5957-81.7295Q69.4802-85.6588 59.0883-85.6588Q48.7484-85.6588 39.6283-81.7295Q30.5081-77.8002 23.5707-70.8153Q16.6333-63.8305 12.678-54.715Q8.72266-45.5995 8.72266-35.2504Q8.72266-24.9012 12.678-15.7857Q16.6333-6.67021 23.5921 0.314603Q30.5509 7.29942 39.671 11.2287Q48.7912 15.158 59.1311 15.158ZM59.1311 5.24978Q50.7316 5.24978 43.3963 2.11881Q36.061-1.01215 30.5197-6.57486Q24.9784-12.1376 21.8428-19.4943Q18.7072-26.8509 18.7072-35.2504Q18.7072-43.6498 21.8214-51.0065Q24.9356-58.3632 30.4769-63.9259Q36.0183-69.4886 43.3536-72.6195Q50.6889-75.7505 59.0883-75.7505Q67.5305-75.7505 74.8918-72.6195Q82.2531-69.4886 87.8158-63.9259Q93.3785-58.3632 96.5095-51.0065Q99.6405-43.6498 99.6405-35.2504Q99.6405-26.8509 96.5095-19.4943Q93.3785-12.1376 87.8158-6.57486Q82.2531-1.01215 74.9178 2.11881Q67.5825 5.24978 59.1311 5.24978ZM48.2249-11.1776Q49.2646-10.1807 51.0666-10.224Q52.8687-10.2673 53.9902-11.3255L73.9043-30.0721Q76.0802-32.099 76.0802-35.2001Q76.0802-38.3012 73.9043-40.3606L53.9902-59.0633Q52.7523-60.2482 51.0867-60.2812Q49.421-60.3142 48.2985-59.2122Q47.0065-58.0134 46.9852-56.2696Q46.9638-54.5257 48.2016-53.3501L67.5166-35.2261L48.2016-17.049Q46.974-15.8837 46.9581-14.1766Q46.9422-12.4696 48.2249-11.1776Z"/>
  </g>
  <g id="Regular-M" transform="matrix(1 0 0 1 1391.32 1126)">
   <path d="M58.492 14.5087Q68.7438 14.5087 77.7439 10.6289Q86.7439 6.74907 93.6228-0.155309Q100.502-7.05969 104.413-16.0597Q108.324-25.0598 108.324-35.2606Q108.324-45.4615 104.413-54.4616Q100.502-63.4616 93.5973-70.366Q86.693-77.2704 77.6929-81.1502Q68.6929-85.03 58.441-85.03Q48.2515-85.03 39.2458-81.1502Q30.2401-77.2704 23.3923-70.366Q16.5446-63.4616 12.6336-54.4616Q8.72266-45.4615 8.72266-35.2606Q8.72266-25.0598 12.6336-16.0597Q16.5446-7.05969 23.4178-0.155309Q30.291 6.74907 39.2968 10.6289Q48.3025 14.5087 58.492 14.5087ZM58.492 6.24099Q49.8824 6.24099 42.3688 3.03788Q34.8553-0.165238 29.1769-5.86909Q23.4985-11.573 20.2897-19.112Q17.0809-26.6511 17.0809-35.2606Q17.0809-43.8702 20.2642-51.4093Q23.4476-58.9483 29.1259-64.6522Q34.8043-70.3561 42.3179-73.5592Q49.8315-76.7623 58.441-76.7623Q67.1016-76.7623 74.6463-73.5592Q82.191-70.3561 87.8949-64.6522Q93.5988-58.9483 96.8019-51.4093Q100.005-43.8702 100.005-35.2606Q100.005-26.6511 96.8019-19.112Q93.5988-11.573 87.8949-5.86909Q82.191-0.165238 74.6775 3.03788Q67.1639 6.24099 58.492 6.24099ZM47.4304-11.0753Q48.3648-10.1918 49.9759-10.2371Q51.587-10.2824 52.595-11.2395L72.9467-30.4303Q74.9797-32.3104 74.9797-35.2012Q74.9797-38.0921 72.9467-40.0231L52.595-59.1743Q51.485-60.2333 49.9815-60.2786Q48.4781-60.3239 47.4814-59.3272Q46.3318-58.2399 46.3063-56.6798Q46.2808-55.1197 47.3908-54.072L67.431-35.2324L47.3908-16.3418Q46.2808-15.2941 46.2865-13.7595Q46.2922-12.2248 47.4304-11.0753Z"/>
  </g>
  <g id="Light-M" transform="matrix(1 0 0 1 1095.44 1126)">
   <path d="M57.664 13.6807Q67.7687 13.6807 76.6123 9.87453Q85.456 6.06831 92.2245-0.716478Q98.993-7.50127 102.83-16.3449Q106.668-25.1886 106.668-35.2606Q106.668-45.3327 102.83-54.1764Q98.993-63.02 92.2082-69.8048Q85.4234-76.5896 76.5798-80.3958Q67.7361-84.202 57.6315-84.202Q47.5892-84.202 38.7306-80.3958Q29.8721-76.5896 23.1348-69.8048Q16.3974-63.02 12.56-54.1764Q8.72266-45.3327 8.72266-35.2606Q8.72266-25.1886 12.56-16.3449Q16.3974-7.50127 23.151-0.716478Q29.9047 6.06831 38.7632 9.87453Q47.6217 13.6807 57.664 13.6807ZM57.664 7.36333Q48.8337 7.36333 41.1085 4.06822Q33.3833 0.773111 27.5394-5.08714Q21.6954-10.9474 18.3854-18.6888Q15.0755-26.4303 15.0755-35.2606Q15.0755-44.091 18.3692-51.8325Q21.6629-59.5739 27.5068-65.4342Q33.3508-71.2944 41.076-74.5895Q48.8011-77.8846 57.6315-77.8846Q66.4944-77.8846 74.2507-74.5895Q82.007-71.2944 87.8673-65.4342Q93.7275-59.5739 97.0227-51.8325Q100.318-44.091 100.318-35.2606Q100.318-26.4303 97.0227-18.6888Q93.7275-10.9474 87.8673-5.08714Q82.007 0.773111 74.2819 4.06822Q66.5567 7.36333 57.664 7.36333ZM46.952-11.2593Q47.684-10.5598 48.9271-10.5775Q50.1702-10.5952 50.9943-11.3867L72.1187-31.5894Q73.7101-33.0831 73.7101-35.2564Q73.7101-37.4297 72.1187-38.956L50.9943-59.1559Q50.1051-60.0125 48.942-60.0302Q47.7789-60.0479 46.9846-59.2536Q46.0926-58.4239 46.0763-57.2134Q46.0601-56.0028 46.9492-55.176L67.7622-35.2876L46.9492-15.3666Q46.0601-14.5398 46.0749-13.3455Q46.0898-12.1512 46.952-11.2593Z"/>
  </g>
  <g id="Thin-M" transform="matrix(1 0 0 1 799.828 1126)">
   <path d="M56.569 12.5857Q66.479 12.5857 75.1158 8.87683Q83.7526 5.16794 90.3751-1.45867Q96.9976-8.08529 100.738-16.7221Q104.478-25.3589 104.478-35.2606Q104.478-45.1624 100.738-53.7992Q96.9976-62.436 90.371-69.0626Q83.7444-75.6892 75.1076-79.3981Q66.4707-83.107 56.5608-83.107Q46.7131-83.107 38.0493-79.3981Q29.3854-75.6892 22.7941-69.0626Q16.2027-62.436 12.4627-53.7992Q8.72266-45.1624 8.72266-35.2606Q8.72266-25.3589 12.4627-16.7221Q16.2027-8.08529 22.7982-1.45867Q29.3936 5.16794 38.0575 8.87683Q46.7214 12.5857 56.569 12.5857ZM56.569 8.84771Q47.4466 8.84771 39.4416 5.43093Q31.4366 2.01415 25.3736-4.05293Q19.3107-10.12 15.8668-18.1291Q12.423-26.1383 12.423-35.2606Q12.423-44.383 15.8627-52.3921Q19.3024-60.4013 25.3654-66.4684Q31.4284-72.5354 39.4334-75.9522Q47.4384-79.369 56.5608-79.369Q65.6914-79.369 73.7275-75.9522Q81.7637-72.5354 87.8308-66.4684Q93.8979-60.4013 97.3147-52.3921Q100.731-44.383 100.731-35.2606Q100.731-26.1383 97.3147-18.1291Q93.8979-10.12 87.8308-4.05293Q81.7637 2.01415 73.7587 5.43093Q65.7537 8.84771 56.569 8.84771ZM46.3194-11.5026Q46.7837-11.0465 47.5401-11.0277Q48.2965-11.0089 48.8772-11.5814L71.0237-33.1225Q72.0311-34.1052 72.0311-35.3294Q72.0311-36.5537 71.0237-37.5446L48.8772-59.1316Q48.2801-59.7205 47.5671-59.7017Q46.8542-59.6829 46.3276-59.1562Q45.7763-58.6672 45.7722-57.9191Q45.7681-57.1709 46.3652-56.636L68.2002-35.3606L46.3652-14.0769Q45.7681-13.5421 45.7951-12.798Q45.8221-12.0539 46.3194-11.5026Z"/>
  </g>
  <g id="Ultralight-M" transform="matrix(1 0 0 1 503.679 1126)">
   <path d="M56.0081 12.0248Q65.8184 12.0248 74.3492 8.36581Q82.8801 4.70678 89.4278-1.83882Q95.9756-8.38442 99.6657-16.9153Q103.356-25.4462 103.356-35.2606Q103.356-45.0751 99.6657-53.606Q95.9756-62.1369 89.43-68.6825Q82.8844-75.2281 74.3535-78.8871Q65.8226-82.5461 56.0124-82.5461Q46.2644-82.5461 37.7003-78.8871Q29.1361-75.2281 22.6196-68.6825Q16.103-62.1369 12.4128-53.606Q8.72266-45.0751 8.72266-35.2606Q8.72266-25.4462 12.4128-16.9153Q16.103-8.38442 22.6175-1.83882Q29.1319 4.70678 37.6961 8.36581Q46.2602 12.0248 56.0081 12.0248ZM56.0081 9.60801Q46.7362 9.60801 38.5878 6.12891Q30.4395 2.64981 24.2644-3.52322Q18.0892-9.69625 14.5768-17.8425Q11.0645-25.9887 11.0645-35.2606Q11.0645-44.5326 14.579-52.6788Q18.0934-60.825 24.2686-66.9981Q30.4437-73.1711 38.5921-76.6502Q46.7404-80.1293 56.0124-80.1293Q65.2801-80.1293 73.4596-76.6502Q81.6391-73.1711 87.8121-66.9981Q93.9851-60.825 97.4642-52.6788Q100.943-44.5326 100.943-35.2606Q100.943-25.9887 97.4642-17.8425Q93.9851-9.69625 87.8121-3.52322Q81.6391 2.64981 73.4907 6.12891Q65.3424 9.60801 56.0081 9.60801ZM45.9953-11.6272Q46.3225-11.2958 46.8296-11.2583Q47.3368-11.2208 47.7929-11.6811L70.4628-33.9077Q71.1711-34.6287 71.1711-35.3668Q71.1711-36.105 70.4628-36.8217L47.7929-59.1191Q47.3453-59.5709 46.8629-59.5334Q46.3806-59.4959 45.9911-59.1064Q45.6142-58.7919 45.6164-58.2805Q45.6185-57.7691 46.0661-57.3838L68.4245-35.398L46.0661-13.4163Q45.6185-13.031 45.6518-12.5175Q45.685-12.004 45.9953-11.6272Z"/>
  </g>
  <g id="Black-S" transform="matrix(1 0 0 1 2884.57 696)">
   <path d="M48.8281 6.78711Q57.5195 6.78711 65.1123 3.51562Q72.7051 0.244141 78.4912-5.54199Q84.2773-11.3281 87.5488-18.9209Q90.8203-26.5137 90.8203-35.2051Q90.8203-43.8965 87.5488-51.4893Q84.2773-59.082 78.4912-64.8682Q72.7051-70.6543 65.1123-73.9258Q57.5195-77.1973 48.8281-77.1973Q40.1367-77.1973 32.5439-73.9258Q24.9512-70.6543 19.165-64.8682Q13.3789-59.082 10.1074-51.4893Q6.83594-43.8965 6.83594-35.2051Q6.83594-26.5137 10.1074-18.9209Q13.3789-11.3281 19.165-5.54199Q24.9512 0.244141 32.5439 3.51562Q40.1367 6.78711 48.8281 6.78711ZM48.8281-7.37305Q43.0664-7.37305 38.0127-9.5459Q32.959-11.7188 29.1504-15.5273Q25.3418-19.3359 23.1689-24.3896Q20.9961-29.4434 20.9961-35.2051Q20.9961-40.9668 23.1689-46.0205Q25.3418-51.0742 29.1504-54.8828Q32.959-58.6914 38.0127-60.8643Q43.0664-63.0371 48.8281-63.0371Q54.5898-63.0371 59.6436-60.8643Q64.6973-58.6914 68.5059-54.8828Q72.3145-51.0742 74.4873-46.0205Q76.6602-40.9668 76.6602-35.2051Q76.6602-29.4434 74.4873-24.3896Q72.3145-19.3359 68.5059-15.5273Q64.6973-11.7188 59.6436-9.5459Q54.5898-7.37305 48.8281-7.37305ZM40.918-16.7969Q42.1387-15.5762 44.2871-15.6006Q46.4355-15.625 47.7539-16.8457L61.6699-29.834Q63.916-31.9824 63.916-35.2051Q63.916-38.4277 61.6699-40.5273L47.7539-53.4668Q46.2891-54.8828 44.3604-54.8584Q42.4316-54.834 41.0645-53.5645Q39.502-52.1973 39.502-50.1221Q39.502-48.0469 40.9668-46.6309L53.2715-35.2051L40.9668-23.7305Q39.5508-22.3633 39.4531-20.3613Q39.3555-18.3594 40.918-16.7969Z"/>
  </g>
  <g id="Heavy-S" transform="matrix(1 0 0 1 2588.47 696)">
   <path d="M48.2173 6.16479Q56.7704 6.16479 64.2537 2.9394Q71.737-0.285985 77.4425-5.99721Q83.1479-11.7084 86.3791-19.1917Q89.6102-26.675 89.6102-35.2166Q89.6102-43.7582 86.3791-51.2415Q83.1479-58.7248 77.4367-64.436Q71.7255-70.1472 64.2422-73.3726Q56.7589-76.598 48.2058-76.598Q39.6642-76.598 32.1809-73.3726Q24.6976-70.1472 18.9979-64.436Q13.2982-58.7248 10.0671-51.2415Q6.83594-43.7582 6.83594-35.2166Q6.83594-26.675 10.0671-19.1917Q13.2982-11.7084 19.0037-5.99721Q24.7092-0.285985 32.1924 2.9394Q39.6757 6.16479 48.2173 6.16479ZM48.2173-6.40499Q42.2482-6.40499 37.0216-8.64699Q31.795-10.889 27.8539-14.8359Q23.9128-18.7828 21.6708-24.0151Q19.4288-29.2474 19.4288-35.2166Q19.4288-41.1858 21.665-46.4181Q23.9012-51.6504 27.8424-55.5973Q31.7835-59.5442 37.0101-61.7862Q42.2366-64.0282 48.2058-64.0282Q54.1865-64.0282 59.4188-61.7862Q64.6512-59.5442 68.5981-55.5973Q72.5449-51.6504 74.7869-46.4181Q77.0289-41.1858 77.0289-35.2166Q77.0289-29.2474 74.7869-24.0151Q72.5449-18.7828 68.5981-14.8359Q64.6512-10.889 59.4246-8.64699Q54.198-6.40499 48.2173-6.40499ZM40.0882-16.6586Q41.2167-15.5416 43.198-15.5718Q45.1794-15.602 46.394-16.7305L60.7019-30.0875Q62.8442-32.1207 62.8442-35.1993Q62.8442-38.2779 60.7019-40.2853L46.394-53.5936Q45.0444-54.8943 43.254-54.8872Q41.4636-54.8801 40.2116-53.7027Q38.7759-52.4278 38.7701-50.5139Q38.7644-48.6 40.114-47.2993L53.1332-35.2051L40.114-23.062Q38.8017-21.7986 38.7271-19.9464Q38.6525-18.0943 40.0882-16.6586Z"/>
  </g>
  <g id="Bold-S" transform="matrix(1 0 0 1 2292.43 696)">
   <path d="M47.5342 5.46875Q55.9326 5.46875 63.2935 2.29492Q70.6543-0.878906 76.2695-6.50635Q81.8848-12.1338 85.0708-19.4946Q88.2568-26.8555 88.2568-35.2295Q88.2568-43.6035 85.0708-50.9644Q81.8848-58.3252 76.2573-63.9526Q70.6299-69.5801 63.269-72.7539Q55.9082-75.9277 47.5098-75.9277Q39.1357-75.9277 31.7749-72.7539Q24.4141-69.5801 18.811-63.9526Q13.208-58.3252 10.022-50.9644Q6.83594-43.6035 6.83594-35.2295Q6.83594-26.8555 10.022-19.4946Q13.208-12.1338 18.8232-6.50635Q24.4385-0.878906 31.7993 2.29492Q39.1602 5.46875 47.5342 5.46875ZM47.5342-5.32227Q41.333-5.32227 35.9131-7.6416Q30.4932-9.96094 26.4038-14.0625Q22.3145-18.1641 19.9951-23.5962Q17.6758-29.0283 17.6758-35.2295Q17.6758-41.4307 19.9829-46.8628Q22.29-52.2949 26.3794-56.3965Q30.4688-60.498 35.8887-62.8174Q41.3086-65.1367 47.5098-65.1367Q53.7354-65.1367 59.1675-62.8174Q64.5996-60.498 68.7012-56.3965Q72.8027-52.2949 75.1221-46.8628Q77.4414-41.4307 77.4414-35.2295Q77.4414-29.0283 75.1221-23.5962Q72.8027-18.1641 68.7012-14.0625Q64.5996-9.96094 59.1797-7.6416Q53.7598-5.32227 47.5342-5.32227ZM39.1602-16.5039Q40.1855-15.5029 41.98-15.5396Q43.7744-15.5762 44.873-16.6016L59.6191-30.3711Q61.6455-32.2754 61.6455-35.1929Q61.6455-38.1104 59.6191-40.0146L44.873-53.7354Q43.6523-54.9072 42.0166-54.9194Q40.3809-54.9316 39.2578-53.8574Q37.9639-52.6855 37.9517-50.9521Q37.9395-49.2188 39.1602-48.0469L52.9785-35.2051L39.1602-22.3145Q37.9639-21.167 37.915-19.4824Q37.8662-17.7979 39.1602-16.5039Z"/>
  </g>
  <g id="Semibold-S" transform="matrix(1 0 0 1 1996.19 696)">
   <path d="M47.0632 4.98887Q55.355 4.98887 62.6314 1.85059Q69.9078-1.2877 75.4608-6.85737Q81.0139-12.4271 84.1688-19.7035Q87.3237-26.9799 87.3237-35.2384Q87.3237-43.4969 84.1688-50.7733Q81.0139-58.0497 75.4442-63.6194Q69.8745-69.1891 62.5981-72.3273Q55.3217-75.4656 47.0299-75.4656Q38.7714-75.4656 31.495-72.3273Q24.2186-69.1891 18.6822-63.6194Q13.1458-58.0497 9.99087-50.7733Q6.83594-43.4969 6.83594-35.2384Q6.83594-26.9799 9.99087-19.7035Q13.1458-12.4271 18.6988-6.85737Q24.2519-1.2877 31.5283 1.85059Q38.8047 4.98887 47.0632 4.98887ZM47.0632-4.57578Q40.7021-4.57578 35.1488-6.94844Q29.5956-9.32109 25.4041-13.5293Q21.2125-17.7375 18.8398-23.3074Q16.4672-28.8772 16.4672-35.2384Q16.4672-41.5995 18.8232-47.1694Q21.1792-52.7393 25.3708-56.9475Q29.5623-61.1557 35.1155-63.5283Q40.6688-65.901 47.0299-65.901Q53.4243-65.901 58.9942-63.5283Q64.5641-61.1557 68.7723-56.9475Q72.9805-52.7393 75.3531-47.1694Q77.7258-41.5995 77.7258-35.2384Q77.7258-28.8772 75.3531-23.3074Q72.9805-17.7375 68.7723-13.5293Q64.5641-9.32109 59.0108-6.94844Q53.4576-4.57578 47.0632-4.57578ZM38.5203-16.3973Q39.4746-15.4763 41.1402-15.5173Q42.8058-15.5584 43.8244-16.5127L58.8727-30.5666Q60.819-32.382 60.819-35.1884Q60.819-37.9948 58.8727-39.828L43.8244-53.8331Q42.6926-54.9161 41.1635-54.9417Q39.6344-54.9672 38.6002-53.9641Q37.404-52.8633 37.3874-51.2543Q37.3707-49.6453 38.5025-48.5623L52.8719-35.2051L38.5025-21.799Q37.3862-20.7315 37.3552-19.1625Q37.3241-17.5935 38.5203-16.3973Z"/>
  </g>
  <g id="Medium-S" transform="matrix(1 0 0 1 1699.83 696)">
   <path d="M46.7061 4.625Q54.917 4.625 62.1294 1.51367Q69.3418-1.59766 74.8477-7.12354Q80.3535-12.6494 83.4849-19.8618Q86.6162-27.0742 86.6162-35.2451Q86.6162-43.416 83.4849-50.6284Q80.3535-57.8408 74.8276-63.3667Q69.3018-68.8926 62.0894-72.0039Q54.877-75.1152 46.666-75.1152Q38.4951-75.1152 31.2827-72.0039Q24.0703-68.8926 18.5845-63.3667Q13.0986-57.8408 9.96729-50.6284Q6.83594-43.416 6.83594-35.2451Q6.83594-27.0742 9.96729-19.8618Q13.0986-12.6494 18.6045-7.12354Q24.1104-1.59766 31.3228 1.51367Q38.5352 4.625 46.7061 4.625ZM46.7061-4.00977Q40.2236-4.00977 34.5693-6.42285Q28.915-8.83594 24.646-13.125Q20.377-17.4141 17.9639-23.0884Q15.5508-28.7627 15.5508-35.2451Q15.5508-41.7275 17.9438-47.4019Q20.3369-53.0762 24.606-57.3652Q28.875-61.6543 34.5293-64.0674Q40.1836-66.4805 46.666-66.4805Q53.1885-66.4805 58.8628-64.0674Q64.5371-61.6543 68.8262-57.3652Q73.1152-53.0762 75.5283-47.4019Q77.9414-41.7275 77.9414-35.2451Q77.9414-28.7627 75.5283-23.0884Q73.1152-17.4141 68.8262-13.125Q64.5371-8.83594 58.8828-6.42285Q53.2285-4.00977 46.7061-4.00977ZM38.0352-16.3164Q38.9355-15.4561 40.5034-15.5005Q42.0713-15.5449 43.0293-16.4453L58.3066-30.7148Q60.1924-32.4629 60.1924-35.1851Q60.1924-37.9072 58.3066-39.6865L43.0293-53.9072Q41.9648-54.9229 40.5166-54.9585Q39.0684-54.9941 38.1016-54.0449Q36.9795-52.998 36.9595-51.4834Q36.9395-49.9688 38.0039-48.9531L52.791-35.2051L38.0039-21.4082Q36.9482-20.4014 36.9307-18.9199Q36.9131-17.4385 38.0352-16.3164Z"/>
  </g>
  <g id="Regular-S" transform="matrix(1 0 0 1 1403.58 696)">
   <path d="M46.2402 4.15039Q54.3457 4.15039 61.4746 1.07422Q68.6035-2.00195 74.0479-7.4707Q79.4922-12.9395 82.5928-20.0684Q85.6934-27.1973 85.6934-35.2539Q85.6934-43.3105 82.5928-50.4395Q79.4922-57.5684 74.0234-63.0371Q68.5547-68.5059 61.4258-71.582Q54.2969-74.6582 46.1914-74.6582Q38.1348-74.6582 31.0059-71.582Q23.877-68.5059 18.457-63.0371Q13.0371-57.5684 9.93652-50.4395Q6.83594-43.3105 6.83594-35.2539Q6.83594-27.1973 9.93652-20.0684Q13.0371-12.9395 18.4814-7.4707Q23.9258-2.00195 31.0547 1.07422Q38.1836 4.15039 46.2402 4.15039ZM46.2402-3.27148Q39.5996-3.27148 33.8135-5.7373Q28.0273-8.20312 23.6572-12.5977Q19.2871-16.9922 16.8213-22.8027Q14.3555-28.6133 14.3555-35.2539Q14.3555-41.8945 16.7969-47.7051Q19.2383-53.5156 23.6084-57.9102Q27.9785-62.3047 33.7646-64.7705Q39.5508-67.2363 46.1914-67.2363Q52.8809-67.2363 58.6914-64.7705Q64.502-62.3047 68.8965-57.9102Q73.291-53.5156 75.7568-47.7051Q78.2227-41.8945 78.2227-35.2539Q78.2227-28.6133 75.7568-22.8027Q73.291-16.9922 68.8965-12.5977Q64.502-8.20312 58.7158-5.7373Q52.9297-3.27148 46.2402-3.27148ZM37.4023-16.2109Q38.2324-15.4297 39.6729-15.4785Q41.1133-15.5273 41.9922-16.3574L57.5684-30.9082Q59.375-32.5684 59.375-35.1807Q59.375-37.793 57.5684-39.502L41.9922-54.0039Q41.0156-54.9316 39.6729-54.9805Q38.3301-55.0293 37.4512-54.1504Q36.4258-53.1738 36.4014-51.7822Q36.377-50.3906 37.3535-49.4629L52.6855-35.2051L37.3535-20.8984Q36.377-19.9707 36.377-18.6035Q36.377-17.2363 37.4023-16.2109Z"/>
  </g>
  <g id="Light-S" transform="matrix(1 0 0 1 1107.6 696)">
   <path d="M45.5078 3.41797Q53.4831 3.41797 60.4736 0.406901Q67.4642-2.60417 72.8109-7.96712Q78.1576-13.3301 81.193-20.3206Q84.2285-27.3112 84.2285-35.2539Q84.2285-43.1966 81.193-50.1872Q78.1576-57.1777 72.7946-62.5407Q67.4316-67.9036 60.4411-70.9147Q53.4505-73.9258 45.4753-73.9258Q37.5488-73.9258 30.5501-70.9147Q23.5514-67.9036 18.2292-62.5407Q12.9069-57.1777 9.87142-50.1872Q6.83594-43.1966 6.83594-35.2539Q6.83594-27.3112 9.87142-20.3206Q12.9069-13.3301 18.2454-7.96712Q23.584-2.60417 30.5827 0.406901Q37.5814 3.41797 45.5078 3.41797ZM45.5078-2.27865Q38.6719-2.27865 32.6986-4.82585Q26.7253-7.37305 22.2087-11.9059Q17.6921-16.4388 15.1367-22.4284Q12.5814-28.418 12.5814-35.2539Q12.5814-42.0898 15.1204-48.0794Q17.6595-54.069 22.1761-58.6019Q26.6927-63.1348 32.666-65.682Q38.6393-68.2292 45.4753-68.2292Q52.3438-68.2292 58.3415-65.682Q64.3392-63.1348 68.8721-58.6019Q73.4049-54.069 75.9521-48.0794Q78.4993-42.0898 78.4993-35.2539Q78.4993-28.418 75.9521-22.4284Q73.4049-16.4388 68.8721-11.9059Q64.3392-7.37305 58.3659-4.82585Q52.3926-2.27865 45.5078-2.27865ZM36.9792-16.3737Q37.6302-15.7552 38.7451-15.7796Q39.86-15.804 40.5762-16.4876L56.8359-31.9336Q58.252-33.252 58.252-35.2295Q58.252-37.207 56.8359-38.5579L40.5762-53.9876Q39.7949-54.7363 38.7533-54.7607Q37.7116-54.7852 37.0117-54.0853Q36.2142-53.3366 36.1979-52.2542Q36.1816-51.1719 36.9629-50.4395L52.9785-35.2539L36.9629-20.0358Q36.1816-19.3034 36.1898-18.2373Q36.1979-17.1712 36.9792-16.3737Z"/>
  </g>
  <g id="Thin-S" transform="matrix(1 0 0 1 811.863 696)">
   <path d="M44.5391 2.44928Q52.3422 2.44928 59.1498-0.47568Q65.9573-3.40064 71.1749-8.62368Q76.3924-13.8467 79.3418-20.6543Q82.2911-27.4619 82.2911-35.2539Q82.2911-43.0459 79.3418-49.8535Q76.3924-56.6611 71.1694-61.8841Q65.9463-67.1072 59.1387-70.0321Q52.3311-72.9571 44.5281-72.9571Q36.7739-72.9571 29.9474-70.0321Q23.1209-67.1072 17.9278-61.8841Q12.7347-56.6611 9.78531-49.8535Q6.83594-43.0459 6.83594-35.2539Q6.83594-27.4619 9.78531-20.6543Q12.7347-13.8467 17.9333-8.62368Q23.1319-3.40064 29.9584-0.47568Q36.7849 2.44928 44.5391 2.44928ZM44.5391-0.965537Q37.4449-0.965537 31.224-3.62037Q25.0032-6.2752 20.2928-10.9911Q15.5825-15.7069 12.9087-21.9333Q10.235-28.1597 10.235-35.2539Q10.235-42.3482 12.9032-48.5745Q15.5714-54.8009 20.2818-59.5168Q24.9921-64.2326 31.213-66.8874Q37.4338-69.5423 44.5281-69.5423Q51.6334-69.5423 57.8787-66.8874Q64.1239-64.2326 68.8398-59.5168Q73.5556-54.8009 76.2105-48.5745Q78.8653-42.3482 78.8653-35.2539Q78.8653-28.1597 76.2105-21.9333Q73.5556-15.7069 68.8398-10.9911Q64.1239-6.2752 57.9031-3.62037Q51.6822-0.965537 44.5391-0.965537ZM36.4195-16.589Q36.8337-16.1857 37.5181-16.1779Q38.2025-16.17 38.7034-16.6598L55.8673-33.2898Q56.7666-34.1561 56.7666-35.2941Q56.7666-36.4321 55.8673-37.3094L38.7034-53.9661Q38.1804-54.478 37.537-54.4701Q36.8936-54.4623 36.4305-53.9992Q35.9343-53.5519 35.9288-52.8785Q35.9233-52.2051 36.4463-51.731L53.366-35.3185L36.4463-18.8949Q35.9233-18.4208 35.9422-17.753Q35.9611-17.0851 36.4195-16.589Z"/>
  </g>
  <g id="Ultralight-S" transform="matrix(1 0 0 1 515.649 696)">
   <path d="M44.043 1.95312Q51.7578 1.95312 58.4717-0.927734Q65.1855-3.80859 70.3369-8.95996Q75.4883-14.1113 78.3936-20.8252Q81.2988-27.5391 81.2988-35.2539Q81.2988-42.9688 78.3936-49.6826Q75.4883-56.3965 70.3369-61.5479Q65.1855-66.6992 58.4717-69.5801Q51.7578-72.4609 44.043-72.4609Q36.377-72.4609 29.6387-69.5801Q22.9004-66.6992 17.7734-61.5479Q12.6465-56.3965 9.74121-49.6826Q6.83594-42.9688 6.83594-35.2539Q6.83594-27.5391 9.74121-20.8252Q12.6465-14.1113 17.7734-8.95996Q22.9004-3.80859 29.6387-0.927734Q36.377 1.95312 44.043 1.95312ZM44.043-0.292969Q36.8164-0.292969 30.4688-3.00293Q24.1211-5.71289 19.3115-10.5225Q14.502-15.332 11.7676-21.6797Q9.0332-28.0273 9.0332-35.2539Q9.0332-42.4805 11.7676-48.8281Q14.502-55.1758 19.3115-59.9854Q24.1211-64.7949 30.4688-67.5049Q36.8164-70.2148 44.043-70.2148Q51.2695-70.2148 57.6416-67.5049Q64.0137-64.7949 68.8232-59.9854Q73.6328-55.1758 76.3428-48.8281Q79.0527-42.4805 79.0527-35.2539Q79.0527-28.0273 76.3428-21.6797Q73.6328-15.332 68.8232-10.5225Q64.0137-5.71289 57.666-3.00293Q51.3184-0.292969 44.043-0.292969ZM36.1328-16.6992Q36.4258-16.4062 36.8896-16.3818Q37.3535-16.3574 37.7441-16.748L55.3711-33.9844Q56.0059-34.6191 56.0059-35.3271Q56.0059-36.0352 55.3711-36.6699L37.7441-53.9551Q37.3535-54.3457 36.9141-54.3213Q36.4746-54.2969 36.1328-53.9551Q35.791-53.6621 35.791-53.1982Q35.791-52.7344 36.1816-52.3926L53.5645-35.3516L36.1816-18.3105Q35.791-17.9688 35.8154-17.5049Q35.8398-17.041 36.1328-16.6992Z"/>
  </g>
 </g>
</svg>
